<svg xmlns="http://www.w3.org/2000/svg" width="142" height="212.112" viewBox="0 0 142 212.112">
  <g id="Group_90" data-name="Group 90" transform="translate(-12547 -2700.853)">
    <ellipse id="Ellipse_110" data-name="Ellipse 110" cx="58.5" cy="84" rx="58.5" ry="84" transform="matrix(1, -0.017, 0.017, 1, 12558, 2744.991)" fill="#ffd580" opacity="0.6"/>
    <ellipse id="Ellipse_111" data-name="Ellipse 111" cx="71" cy="29.5" rx="71" ry="29.5" transform="translate(12547 2710)" fill="#9df" opacity="0.6"/>
    <rect id="Rectangle_402" data-name="Rectangle 402" width="15" height="19" rx="7.5" transform="matrix(1, 0.017, -0.017, 1, 12612.193, 2700.853)" fill="#de5c4c" opacity="0.6"/>
    <path id="Union_41" data-name="Union 41" d="M-7916.142-1930.389c-4.97-2.863-7.269-5.948-8.236-8.624-.967,2.677-3.267,5.761-8.238,8.624-7.533,4.336-18.966,1.458-25.447-1.422-4.271-1.9-6.392-3.8-3.818-3.624,6.474.432,8.343.082,20.128-10.751s17.249,0,17.249,0,.051.1.127.289c.076-.188.127-.289.127-.289s5.461-10.833,17.246,0,13.655,11.183,20.128,10.751c2.572-.172.452,1.726-3.82,3.624a41.8,41.8,0,0,1-15.977,3.637A18.9,18.9,0,0,1-7916.142-1930.389Z" transform="translate(20520.777 4804.43)" fill="rgba(26,30,54,0.6)"/>
  </g>
</svg>
