<svg xmlns="http://www.w3.org/2000/svg" width="51" height="50.991" viewBox="0 0 51 50.991">
  <g id="Group_89" data-name="Group 89" transform="translate(-10277 -2723.02)">
    <path id="Path_1548" data-name="Path 1548" d="M16.314,46.714c-2.984-2.6-2.04-5.9-.228-7.814a6.1,6.1,0,0,0,1.907-2.926,5.057,5.057,0,0,0-1.033-4.1A5.574,5.574,0,0,0,12.8,29.937a5.506,5.506,0,0,0-3.917,1.87c-.834.788-2.061,2.575-3.845,2.562-1.04,0-2.947.061-3.657-2.311A25.187,25.187,0,0,1,0,24,23.992,23.992,0,0,1,40.971,7.03,23.993,23.993,0,0,1,24,48c-.622,0-1.3.016-1.985.016C19.935,48.016,17.71,47.872,16.314,46.714Z" transform="translate(10277 2723.02)" fill="#de5c4c"/>
    <path id="Path_1546" data-name="Path 1546" d="M28.578,49c-2.5,0-5.829.256-7.686-1.287-2.984-2.6-2.04-5.895-.228-7.814a6.1,6.1,0,0,0,1.908-2.926,5.06,5.06,0,0,0-1.033-4.1,5.572,5.572,0,0,0-4.156-1.941,5.5,5.5,0,0,0-3.917,1.871c-.835.787-2.062,2.574-3.845,2.562-1.04,0-2.947.062-3.657-2.311A25.189,25.189,0,0,1,4.577,25a24.006,24.006,0,0,1,46.114-9.341A23.992,23.992,0,0,1,28.578,49Zm5-16a5,5,0,1,0,5,5A5.006,5.006,0,0,0,33.577,33Zm7-14a5,5,0,1,0,5,5A5.006,5.006,0,0,0,40.577,19Zm-25-4a5,5,0,1,0,5,5A5.006,5.006,0,0,0,15.577,15Zm14-7a5,5,0,1,0,5,5A5.006,5.006,0,0,0,29.578,8Z" transform="translate(10274.423 2724)" fill="none" stroke="#1e2b75" stroke-width="2"/>
    <circle id="Ellipse_104" data-name="Ellipse 104" cx="4" cy="4" r="4" transform="translate(10300 2733)" fill="#fff"/>
    <circle id="Ellipse_105" data-name="Ellipse 105" cx="4" cy="4" r="4" transform="translate(10311 2744)" fill="#fff"/>
    <circle id="Ellipse_106" data-name="Ellipse 106" cx="4" cy="4" r="4" transform="translate(10304 2758)" fill="#fff"/>
    <circle id="Ellipse_107" data-name="Ellipse 107" cx="4" cy="4" r="4" transform="translate(10286 2740)" fill="#fff"/>
  </g>
</svg>
