<svg xmlns="http://www.w3.org/2000/svg" width="73.002" height="73.001" viewBox="0 0 73.002 73.001">
  <path id="Path_1494" data-name="Path 1494" d="M-5778.667-705.113a.944.944,0,0,1-.261-.386,1.664,1.664,0,0,1-.1-.534,1.6,1.6,0,0,1,.057-.522,1.325,1.325,0,0,1,.261-.488,1.722,1.722,0,0,1,.431-.386,1.4,1.4,0,0,1,.488-.193.467.467,0,0,1,.408.091,1.083,1.083,0,0,1,.5.783,1.356,1.356,0,0,1-.2.794,2.287,2.287,0,0,1-.567.636,1.47,1.47,0,0,1-.59.306.627.627,0,0,1-.113.011A.455.455,0,0,1-5778.667-705.113Zm41.847-.812a1.151,1.151,0,0,1-.454-.25,6.867,6.867,0,0,1-.545-.578q-.407-.465-.885-1.1t-.931-1.384a7.116,7.116,0,0,1-.681-1.429,7.9,7.9,0,0,1-1.612-.613,5.3,5.3,0,0,1-1.294-.919,4,4,0,0,1-.852-1.2,3.483,3.483,0,0,1-.306-1.464,2.4,2.4,0,0,1,.4-1.464,2.449,2.449,0,0,1,.987-.794,3.964,3.964,0,0,1,1.294-.318c.127-.01.251-.019.374-.026q-.436-.394-.884-.858a12.631,12.631,0,0,1-1.135-1.35,7.843,7.843,0,0,1-.84-1.452,3.65,3.65,0,0,1-.329-1.475,3.38,3.38,0,0,1,.375-1.668,3.059,3.059,0,0,1,.965-1.066,3.788,3.788,0,0,1,1.3-.556c.148-.033.3-.061.443-.083q-.412-.367-.806-.756a13.826,13.826,0,0,1-1.374-1.554,2.506,2.506,0,0,1-.59-1.237,1.771,1.771,0,0,1,.125-.76,2.4,2.4,0,0,1,.409-.681,2.346,2.346,0,0,1,.613-.511,1.649,1.649,0,0,1,.738-.227,8.732,8.732,0,0,1,1.555,0l.082.006c-.158-.134-.313-.273-.468-.414a14.048,14.048,0,0,1-1.68-1.827,10.02,10.02,0,0,1-1.191-1.974,4.771,4.771,0,0,1-.454-1.963,2.848,2.848,0,0,1,.238-1.078,3.075,3.075,0,0,1,.737-1.055,3.6,3.6,0,0,1,1.294-.76,3.513,3.513,0,0,1,.852-.182q-.426-.386-.863-.839a12.637,12.637,0,0,1-1.135-1.35,7.848,7.848,0,0,1-.84-1.452,3.65,3.65,0,0,1-.329-1.475,3.38,3.38,0,0,1,.375-1.668,3.058,3.058,0,0,1,.965-1.067,3.789,3.789,0,0,1,1.3-.556c.179-.039.355-.072.532-.1q-.533-.539-1.009-1.095a18.936,18.936,0,0,1-1.18-1.52q-.51-.738-.829-1.259-1.022-.227-1.657-.386t-1.158-.272l-1.362-.284q-.817-.17-1.725-.385t-1.8-.5a12.6,12.6,0,0,1-1.612-.624,4.878,4.878,0,0,1-1.169-.749,1.205,1.205,0,0,1-.454-.908,1.94,1.94,0,0,1,.443-1.282,3.745,3.745,0,0,1,1.112-.9,5.49,5.49,0,0,1,1.441-.533,6.669,6.669,0,0,1,1.431-.17,6.027,6.027,0,0,1,1.509.159,3.422,3.422,0,0,1,1.146.556,7.775,7.775,0,0,1,1.158,1.078q.613.681,1.521,1.747.454.522.863,1t.749.908l.851.216q.4.1.715.17a5.552,5.552,0,0,1-1.339-1.418,3.369,3.369,0,0,1-.545-1.895,1.837,1.837,0,0,1,.874-1.577,4.55,4.55,0,0,1,2.577-.6,7,7,0,0,1,1.929.318,8.24,8.24,0,0,1,2.043.908,5.941,5.941,0,0,1,1.612,1.452,3.1,3.1,0,0,1,.658,1.929,1.484,1.484,0,0,1-.25.862,2.284,2.284,0,0,1-.624.613,3.2,3.2,0,0,1-.794.386,6.318,6.318,0,0,1-.784.2,1.774,1.774,0,0,0,.284.068,1.181,1.181,0,0,1,.261.068,2.56,2.56,0,0,1,1.056.511,1.154,1.154,0,0,1,.284.851,1.128,1.128,0,0,1-.114.533q-.113.216-.2.216c-.166-.076-.295-.136-.386-.182s-.186-.091-.284-.136a2.89,2.89,0,0,0-.374-.136c-.151-.045-.37-.106-.658-.182q-.16-.045-.738-.17t-1.374-.318q-.794-.193-1.748-.408l-1.861-.42a11.8,11.8,0,0,0,.886,1.316q.521.681,1.066,1.294.444.5.85.907a7.423,7.423,0,0,1,1.353.3,7.947,7.947,0,0,1,2.009.942,6.19,6.19,0,0,1,1.657,1.577,3.718,3.718,0,0,1,.692,2.246,1.7,1.7,0,0,1-.5,1.237,1.749,1.749,0,0,1-1.362.488,2.466,2.466,0,0,1-.806-.136,2.577,2.577,0,0,1-.7-.363,1.806,1.806,0,0,1-.488-.533,1.288,1.288,0,0,1-.182-.669.5.5,0,0,1,.216-.443,1.106,1.106,0,0,1,.5-.181,2.281,2.281,0,0,1,.556,0,1.313,1.313,0,0,1,.363.08.707.707,0,0,1,.228.25l.158.318a.509.509,0,0,0,.2.215.573.573,0,0,0,.295.079.422.422,0,0,0,.272-.091.356.356,0,0,0,.114-.3,1.845,1.845,0,0,0-.329-.737,4.83,4.83,0,0,0-.977-1.089,6.505,6.505,0,0,0-1.623-.987,5.835,5.835,0,0,0-2.27-.454,2.668,2.668,0,0,0-1.226.2,2.093,2.093,0,0,0-.75.567,2.1,2.1,0,0,0-.386.749,2.979,2.979,0,0,0-.113.794,2.91,2.91,0,0,0,.556,1.554,12.422,12.422,0,0,0,1.305,1.656,18.671,18.671,0,0,0,1.363,1.328,6.315,6.315,0,0,1,1.622.532,8.946,8.946,0,0,1,1.9,1.2,6.824,6.824,0,0,1,1.43,1.611,3.344,3.344,0,0,1,.567,1.8,1.6,1.6,0,0,1-.431,1.248,1.386,1.386,0,0,1-1.067.34,3.272,3.272,0,0,1-1.293-.4,5.213,5.213,0,0,1-1.067-.783,7.945,7.945,0,0,1-.863-.964q-.385-.51-.7-.964-.341-.5-.647-.953t-.556-.794a2.459,2.459,0,0,0-.953.2,1.876,1.876,0,0,0-.625.454,1.629,1.629,0,0,0-.34.624,2.54,2.54,0,0,0-.1.715,3.208,3.208,0,0,0,.488,1.611,11.01,11.01,0,0,0,1.181,1.645,17.933,17.933,0,0,0,1.441,1.5q.445.412.82.74c.13.02.262.042.394.065a16.678,16.678,0,0,1,1.964.465,4.238,4.238,0,0,1,1.385.647.872.872,0,0,1,.227.431,5.9,5.9,0,0,1,.147.658,5.054,5.054,0,0,1,.068.624,1.091,1.091,0,0,1-.012.329,1.734,1.734,0,0,1-.477-.114q-.453-.136-1.066-.34t-1.26-.431q-.647-.227-1.055-.34t-.919-.272q-.51-.159-1-.284a6.452,6.452,0,0,0-.919-.17,1.22,1.22,0,0,0-.658.068.892.892,0,0,0-.375.249.486.486,0,0,0-.1.295,2.144,2.144,0,0,0,.5,1.146,12.817,12.817,0,0,0,1.192,1.407q.545.562,1.1,1.061a7.6,7.6,0,0,1,1.291.289,7.938,7.938,0,0,1,2.009.942,6.191,6.191,0,0,1,1.657,1.577,3.718,3.718,0,0,1,.692,2.246,1.7,1.7,0,0,1-.5,1.237,1.749,1.749,0,0,1-1.362.488,2.465,2.465,0,0,1-.806-.136,2.573,2.573,0,0,1-.7-.363,1.805,1.805,0,0,1-.488-.533,1.289,1.289,0,0,1-.182-.669.5.5,0,0,1,.216-.443,1.107,1.107,0,0,1,.5-.181,2.281,2.281,0,0,1,.556,0,1.313,1.313,0,0,1,.363.08.707.707,0,0,1,.228.25l.158.318a.509.509,0,0,0,.2.215.573.573,0,0,0,.295.08.423.423,0,0,0,.272-.091.356.356,0,0,0,.114-.3,1.845,1.845,0,0,0-.329-.737,4.834,4.834,0,0,0-.977-1.089,6.505,6.505,0,0,0-1.623-.987,5.836,5.836,0,0,0-2.27-.454,2.67,2.67,0,0,0-1.226.2,2.093,2.093,0,0,0-.75.567,2.1,2.1,0,0,0-.386.749,2.978,2.978,0,0,0-.113.794,2.91,2.91,0,0,0,.556,1.554,12.418,12.418,0,0,0,1.305,1.656q.642.69,1.308,1.28.263.025.554.082a8.579,8.579,0,0,1,1.067.284,7.446,7.446,0,0,1,1.089.465,5.362,5.362,0,0,1,1,.669,1.869,1.869,0,0,1,.681.42,2.465,2.465,0,0,1,.488.658,3.532,3.532,0,0,1,.3.806,3.676,3.676,0,0,1,.1.84.342.342,0,0,1-.022.125c-.016.038-.03.079-.045.125a2.254,2.254,0,0,1-.227.737,3.141,3.141,0,0,1-.613.862,3.526,3.526,0,0,1-1.033.715,3.514,3.514,0,0,1-1.51.295c-.121,0-.269-.008-.443-.023s-.321-.03-.442-.045a11.143,11.143,0,0,0,.5,1.089q.294.567.624,1.1t.67.987a6.75,6.75,0,0,0,.613.726.819.819,0,0,1,.227.386.207.207,0,0,1-.091.227.326.326,0,0,1-.169.041A.7.7,0,0,1-5736.82-705.925Zm-1.237-8.6a1.844,1.844,0,0,0-.715.227,1.419,1.419,0,0,0-.534.578,2.331,2.331,0,0,0-.216,1.1,2.2,2.2,0,0,0,.012.227,2.277,2.277,0,0,0,.034.227l.534.125a1.829,1.829,0,0,0,.42.057,4.308,4.308,0,0,0,.885,0,3.829,3.829,0,0,0,.829-.17,1.936,1.936,0,0,0,.613-.318.582.582,0,0,0,.239-.465,1.589,1.589,0,0,0-.239-.828,2.766,2.766,0,0,0-.669-.737,1.359,1.359,0,0,0-.432-.068A6.746,6.746,0,0,0-5738.057-714.525Zm-3.609-1.384a2.4,2.4,0,0,0-.7.182,1.367,1.367,0,0,0-.5.363.877.877,0,0,0-.193.59,1.49,1.49,0,0,0,.193.749,2.388,2.388,0,0,0,.5.613,3.721,3.721,0,0,0,.7.488,6.319,6.319,0,0,0,.828.374q-.023-.159-.034-.306c-.007-.1-.011-.208-.011-.329a2.274,2.274,0,0,1,.511-1.486,3.369,3.369,0,0,1,1.305-.965q-.476-.136-.931-.227a4.4,4.4,0,0,0-.862-.091A7.112,7.112,0,0,0-5741.666-715.909Zm2.383-22.419c.145.212.3.424.466.636a6.3,6.3,0,0,0,1.316,1.361,2.3,2.3,0,0,0,.977.431.934.934,0,0,0,.624-.091.446.446,0,0,0,.192-.386,1.168,1.168,0,0,0-.272-.647,3.356,3.356,0,0,0-.783-.737,6.8,6.8,0,0,0-1.249-.681,7.317,7.317,0,0,0-1.691-.477Q-5739.5-738.645-5739.283-738.328Zm-2.837-19.65a1.123,1.123,0,0,0-.579,1.135,1.723,1.723,0,0,0,.25.9,4.1,4.1,0,0,0,.579.76,4.13,4.13,0,0,0,.67.567q.34.227.545.341.2.091.545.215a4.846,4.846,0,0,0,.658.193,2.242,2.242,0,0,0,.567.057q.25-.011.272-.17a.3.3,0,0,1,.182-.216,1.574,1.574,0,0,1,.363-.125,2.5,2.5,0,0,1,.408-.057q.205-.012.363-.034a2.576,2.576,0,0,0,1.158-.386.77.77,0,0,0,.364-.613,1.6,1.6,0,0,0-.454-1.078,4.411,4.411,0,0,0-1.169-.908,6.855,6.855,0,0,0-1.566-.624,6.3,6.3,0,0,0-1.623-.227A3.629,3.629,0,0,0-5742.12-757.978Zm-9.886-.647a3.338,3.338,0,0,0-.75.159.77.77,0,0,0-.375.25.563.563,0,0,0-.1.329q0,.454.669.737a15.153,15.153,0,0,0,1.827.6l.783.193q.511.125,1.169.295t1.418.352q.76.182,1.532.386l-.329-.374a4.845,4.845,0,0,0-.4-.4l-.919-.965a7.313,7.313,0,0,0-.931-.828,4.354,4.354,0,0,0-1.056-.578,3.7,3.7,0,0,0-1.316-.215A10.683,10.683,0,0,0-5752.006-758.624Zm-10.981,47.78a1.749,1.749,0,0,1-.488-1.362,2.468,2.468,0,0,1,.136-.806,2.566,2.566,0,0,1,.363-.7,1.792,1.792,0,0,1,.533-.488,1.285,1.285,0,0,1,.669-.182.5.5,0,0,1,.442.216,1.1,1.1,0,0,1,.182.5,2.3,2.3,0,0,1,0,.556,1.309,1.309,0,0,1-.079.363.7.7,0,0,1-.25.227l-.317.159a.509.509,0,0,0-.216.2.577.577,0,0,0-.079.3.422.422,0,0,0,.091.272.355.355,0,0,0,.295.114,1.842,1.842,0,0,0,.737-.329,4.819,4.819,0,0,0,1.089-.976,6.494,6.494,0,0,0,.987-1.623,5.83,5.83,0,0,0,.454-2.27,2.687,2.687,0,0,0-.2-1.226,2.094,2.094,0,0,0-.567-.749,2.081,2.081,0,0,0-.749-.386,2.957,2.957,0,0,0-.794-.114,2.908,2.908,0,0,0-1.554.556,12.4,12.4,0,0,0-1.656,1.305,18.774,18.774,0,0,0-1.328,1.363,6.321,6.321,0,0,1-.533,1.622,8.938,8.938,0,0,1-1.2,1.9,6.85,6.85,0,0,1-1.611,1.43,3.346,3.346,0,0,1-1.8.567,1.6,1.6,0,0,1-1.248-.431,1.383,1.383,0,0,1-.34-1.067,3.286,3.286,0,0,1,.4-1.294,5.245,5.245,0,0,1,.783-1.067,7.953,7.953,0,0,1,.964-.863q.51-.386.964-.7.5-.341.953-.647t.794-.556a2.46,2.46,0,0,0-.2-.953,1.878,1.878,0,0,0-.454-.624,1.614,1.614,0,0,0-.624-.34,2.548,2.548,0,0,0-.714-.1,3.211,3.211,0,0,0-1.611.488,10.994,10.994,0,0,0-1.646,1.181,17.958,17.958,0,0,0-1.5,1.441q-.413.446-.74.82c-.021.131-.043.262-.065.394a16.521,16.521,0,0,1-.466,1.964,4.214,4.214,0,0,1-.646,1.385.869.869,0,0,1-.431.227,6.016,6.016,0,0,1-.658.148,5.088,5.088,0,0,1-.624.068,1.132,1.132,0,0,1-.329-.011,1.767,1.767,0,0,1,.113-.477q.136-.454.34-1.067t.431-1.26q.227-.647.34-1.056t.272-.919q.159-.511.284-1a6.407,6.407,0,0,0,.17-.919,1.227,1.227,0,0,0-.067-.658.9.9,0,0,0-.25-.375.482.482,0,0,0-.295-.1,2.145,2.145,0,0,0-1.146.5,12.872,12.872,0,0,0-1.406,1.192q-.562.545-1.062,1.1a7.607,7.607,0,0,1-.289,1.291,7.954,7.954,0,0,1-.942,2.009,6.187,6.187,0,0,1-1.577,1.657,3.717,3.717,0,0,1-2.246.692,1.7,1.7,0,0,1-1.236-.5,1.747,1.747,0,0,1-.488-1.362,2.494,2.494,0,0,1,.136-.806,2.579,2.579,0,0,1,.363-.7,1.81,1.81,0,0,1,.533-.488,1.29,1.29,0,0,1,.67-.182.5.5,0,0,1,.442.216,1.107,1.107,0,0,1,.182.5,2.3,2.3,0,0,1,0,.556,1.318,1.318,0,0,1-.08.363.694.694,0,0,1-.249.227l-.318.159a.509.509,0,0,0-.215.2.569.569,0,0,0-.08.3.42.42,0,0,0,.092.272.353.353,0,0,0,.294.114,1.842,1.842,0,0,0,.737-.329,4.841,4.841,0,0,0,1.089-.976,6.537,6.537,0,0,0,.987-1.623,5.83,5.83,0,0,0,.454-2.27,2.674,2.674,0,0,0-.2-1.226,2.094,2.094,0,0,0-.567-.749,2.081,2.081,0,0,0-.749-.386,2.954,2.954,0,0,0-.794-.114,2.905,2.905,0,0,0-1.554.556,12.408,12.408,0,0,0-1.657,1.305q-.688.641-1.279,1.307c-.017.175-.044.36-.083.554a8.472,8.472,0,0,1-.283,1.067,7.555,7.555,0,0,1-.465,1.089,5.362,5.362,0,0,1-.669,1,1.871,1.871,0,0,1-.42.681,2.477,2.477,0,0,1-.657.488,3.543,3.543,0,0,1-.806.295,3.637,3.637,0,0,1-.84.1.327.327,0,0,1-.125-.023c-.038-.015-.08-.03-.125-.045a2.268,2.268,0,0,1-.737-.227,3.132,3.132,0,0,1-.863-.613,3.533,3.533,0,0,1-.714-1.033,3.51,3.51,0,0,1-.295-1.51c0-.121.007-.269.023-.443s.03-.322.045-.443a11.161,11.161,0,0,0-1.089.5q-.567.295-1.1.624t-.987.67a6.871,6.871,0,0,0-.726.613.821.821,0,0,1-.386.227.205.205,0,0,1-.227-.091.432.432,0,0,1-.023-.318,1.141,1.141,0,0,1,.25-.454,6.787,6.787,0,0,1,.578-.545q.466-.409,1.1-.885t1.384-.931a7.143,7.143,0,0,1,1.43-.681,7.838,7.838,0,0,1,.613-1.612,5.3,5.3,0,0,1,.919-1.294,4,4,0,0,1,1.2-.851,3.474,3.474,0,0,1,1.463-.307,2.4,2.4,0,0,1,1.464.4,2.458,2.458,0,0,1,.794.987,3.973,3.973,0,0,1,.317,1.294q.015.19.026.374.394-.436.858-.885a12.574,12.574,0,0,1,1.35-1.135,7.839,7.839,0,0,1,1.452-.84,3.648,3.648,0,0,1,1.475-.329,3.379,3.379,0,0,1,1.668.375,3.064,3.064,0,0,1,1.066.965,3.788,3.788,0,0,1,.556,1.305c.033.148.061.3.083.443q.367-.411.756-.806a13.8,13.8,0,0,1,1.554-1.374,2.509,2.509,0,0,1,1.237-.59,1.769,1.769,0,0,1,.76.125,2.388,2.388,0,0,1,.681.409,2.353,2.353,0,0,1,.511.613,1.643,1.643,0,0,1,.227.738,8.638,8.638,0,0,1,0,1.555l-.006.082c.135-.157.272-.313.415-.468a14.019,14.019,0,0,1,1.826-1.68,10,10,0,0,1,1.974-1.192,4.771,4.771,0,0,1,1.962-.454,2.844,2.844,0,0,1,1.078.238,3.076,3.076,0,0,1,1.055.738,3.6,3.6,0,0,1,.76,1.294,3.51,3.51,0,0,1,.182.852q.386-.426.839-.863a12.622,12.622,0,0,1,1.35-1.135,7.855,7.855,0,0,1,1.452-.84,3.646,3.646,0,0,1,1.475-.329,3.377,3.377,0,0,1,1.668.375,3.06,3.06,0,0,1,1.066.965,3.8,3.8,0,0,1,.557,1.305q.059.267.1.532.539-.533,1.095-1.009a19.07,19.07,0,0,1,1.521-1.18q.738-.511,1.26-.829.226-1.021.385-1.657t.272-1.158q.114-.545.284-1.362t.386-1.725q.215-.908.5-1.8a12.622,12.622,0,0,1,.624-1.612,4.87,4.87,0,0,1,.749-1.169,1.2,1.2,0,0,1,.907-.454,1.942,1.942,0,0,1,1.282.443,3.746,3.746,0,0,1,.9,1.112,5.473,5.473,0,0,1,.533,1.441,6.681,6.681,0,0,1,.17,1.43,6.006,6.006,0,0,1-.159,1.51,3.4,3.4,0,0,1-.556,1.146,7.735,7.735,0,0,1-1.078,1.158q-.68.613-1.747,1.521-.522.454-1,.863t-.908.749q-.114.454-.215.851t-.17.715a5.552,5.552,0,0,1,1.418-1.339,3.369,3.369,0,0,1,1.895-.545,1.836,1.836,0,0,1,1.577.874,4.55,4.55,0,0,1,.6,2.576,7,7,0,0,1-.318,1.929,8.246,8.246,0,0,1-.907,2.043,5.942,5.942,0,0,1-1.452,1.612,3.1,3.1,0,0,1-1.929.658,1.483,1.483,0,0,1-.862-.25,2.29,2.29,0,0,1-.613-.624,3.2,3.2,0,0,1-.385-.795,6.351,6.351,0,0,1-.205-.783,1.72,1.72,0,0,0-.067.284,1.216,1.216,0,0,1-.068.261,2.557,2.557,0,0,1-.511,1.056,1.154,1.154,0,0,1-.851.284,1.137,1.137,0,0,1-.533-.114q-.216-.114-.216-.2c.076-.166.136-.295.182-.386s.091-.185.136-.284a2.971,2.971,0,0,0,.136-.375q.067-.227.182-.658.045-.159.17-.738t.318-1.373q.193-.795.408-1.748t.42-1.861a11.815,11.815,0,0,0-1.315.885q-.681.522-1.294,1.067-.5.444-.907.849a7.445,7.445,0,0,1-.295,1.353,7.954,7.954,0,0,1-.942,2.009,6.187,6.187,0,0,1-1.577,1.657,3.72,3.72,0,0,1-2.247.692A1.7,1.7,0,0,1-5762.987-710.845Zm-4.867-4.438q-.318.215-.635.465a6.34,6.34,0,0,0-1.362,1.317,2.3,2.3,0,0,0-.431.976.936.936,0,0,0,.09.624.445.445,0,0,0,.386.193,1.166,1.166,0,0,0,.646-.272,3.359,3.359,0,0,0,.737-.783,6.8,6.8,0,0,0,.681-1.249,7.329,7.329,0,0,0,.477-1.691Q-5767.537-715.5-5767.854-715.283Zm17.62-3.167a4.1,4.1,0,0,0-.76.579,4.089,4.089,0,0,0-.567.67q-.227.341-.34.545-.091.2-.215.545a4.942,4.942,0,0,0-.193.658,2.283,2.283,0,0,0-.057.567q.012.25.17.273a.3.3,0,0,1,.216.182,1.563,1.563,0,0,1,.125.363,2.5,2.5,0,0,1,.057.409q.012.2.034.363a2.575,2.575,0,0,0,.386,1.158.769.769,0,0,0,.612.363,1.6,1.6,0,0,0,1.078-.454,4.406,4.406,0,0,0,.908-1.169,6.829,6.829,0,0,0,.624-1.566,6.282,6.282,0,0,0,.228-1.623,3.632,3.632,0,0,0-.272-1.532,1.124,1.124,0,0,0-1.135-.579A1.723,1.723,0,0,0-5750.235-718.449Zm-43.555,2.94c-.076.008-.151.019-.227.034q-.068.3-.125.534a1.824,1.824,0,0,0-.057.42,4.326,4.326,0,0,0,0,.885,3.806,3.806,0,0,0,.17.829,1.943,1.943,0,0,0,.318.613.579.579,0,0,0,.465.238,1.587,1.587,0,0,0,.828-.238,2.757,2.757,0,0,0,.737-.67,1.369,1.369,0,0,0,.068-.431,6.708,6.708,0,0,0-.046-.76,1.847,1.847,0,0,0-.227-.715,1.423,1.423,0,0,0-.579-.533,2.323,2.323,0,0,0-1.1-.216C-5793.639-715.521-5793.714-715.517-5793.79-715.51Zm2.281-.863a3.38,3.38,0,0,1,.964,1.305q.136-.477.227-.931a4.4,4.4,0,0,0,.091-.863,6.977,6.977,0,0,0-.045-.806,2.4,2.4,0,0,0-.181-.7,1.378,1.378,0,0,0-.363-.5.879.879,0,0,0-.59-.193,1.492,1.492,0,0,0-.749.193,2.4,2.4,0,0,0-.612.5,3.75,3.75,0,0,0-.488.7,6.26,6.26,0,0,0-.374.828c.105-.015.208-.026.306-.034s.208-.011.329-.011A2.277,2.277,0,0,1-5791.509-716.372Zm42.477-12.19a15.132,15.132,0,0,0-.6,1.827q-.067.272-.192.783t-.295,1.169q-.171.658-.353,1.419t-.385,1.532l.375-.329a4.971,4.971,0,0,0,.4-.4l.964-.919a7.287,7.287,0,0,0,.828-.931,4.334,4.334,0,0,0,.578-1.055,3.678,3.678,0,0,0,.216-1.317,10.686,10.686,0,0,0-.057-1.226,3.334,3.334,0,0,0-.159-.749.77.77,0,0,0-.249-.375.565.565,0,0,0-.329-.1Q-5748.749-729.232-5749.032-728.562Zm-31.607,6.537a3.419,3.419,0,0,1-1.146-.556,7.712,7.712,0,0,1-1.158-1.078q-.612-.681-1.521-1.747-.454-.522-.863-1t-.749-.908q-.454-.113-.851-.215c-.265-.068-.5-.125-.715-.17a5.56,5.56,0,0,1,1.34,1.418,3.372,3.372,0,0,1,.544,1.895,1.836,1.836,0,0,1-.874,1.577,4.55,4.55,0,0,1-2.577.6,7,7,0,0,1-1.929-.318,8.252,8.252,0,0,1-2.043-.908,5.936,5.936,0,0,1-1.612-1.452,3.1,3.1,0,0,1-.658-1.929,1.488,1.488,0,0,1,.25-.862,2.292,2.292,0,0,1,.624-.613,3.212,3.212,0,0,1,.795-.386,6.339,6.339,0,0,1,.783-.2,1.724,1.724,0,0,0-.284-.068,1.213,1.213,0,0,1-.261-.068,2.56,2.56,0,0,1-1.056-.511,1.154,1.154,0,0,1-.284-.851,1.129,1.129,0,0,1,.114-.533c.075-.144.144-.215.2-.215.166.075.295.136.386.181s.186.091.284.136a2.836,2.836,0,0,0,.375.136q.227.068.658.182c.106.03.352.087.738.17s.844.189,1.374.318,1.112.265,1.748.408l1.861.42a11.82,11.82,0,0,0-.886-1.316q-.521-.681-1.067-1.294-.443-.5-.849-.907a7.4,7.4,0,0,1-1.353-.3,7.933,7.933,0,0,1-2.009-.942,6.2,6.2,0,0,1-1.657-1.577,3.717,3.717,0,0,1-.692-2.246,1.7,1.7,0,0,1,.5-1.237,1.747,1.747,0,0,1,1.361-.488,2.474,2.474,0,0,1,.806.136,2.577,2.577,0,0,1,.7.363,1.8,1.8,0,0,1,.488.533,1.284,1.284,0,0,1,.182.669.5.5,0,0,1-.216.443,1.1,1.1,0,0,1-.5.181,2.275,2.275,0,0,1-.556,0,1.323,1.323,0,0,1-.363-.079.71.71,0,0,1-.228-.25l-.158-.318a.506.506,0,0,0-.2-.215.572.572,0,0,0-.295-.079.423.423,0,0,0-.272.091.355.355,0,0,0-.114.295,1.844,1.844,0,0,0,.329.737,4.841,4.841,0,0,0,.976,1.089,6.537,6.537,0,0,0,1.624.987,5.827,5.827,0,0,0,2.27.454,2.67,2.67,0,0,0,1.226-.2,2.087,2.087,0,0,0,.749-.567,2.086,2.086,0,0,0,.386-.749,2.96,2.96,0,0,0,.114-.794,2.908,2.908,0,0,0-.556-1.554,12.4,12.4,0,0,0-1.305-1.657,18.866,18.866,0,0,0-1.362-1.328,6.313,6.313,0,0,1-1.623-.533,8.935,8.935,0,0,1-1.9-1.2,6.834,6.834,0,0,1-1.43-1.611,3.348,3.348,0,0,1-.567-1.8,1.6,1.6,0,0,1,.432-1.248,1.383,1.383,0,0,1,1.066-.341,3.281,3.281,0,0,1,1.294.4,5.225,5.225,0,0,1,1.066.783,7.9,7.9,0,0,1,.863.965q.386.511.7.964c.228.333.442.65.647.953s.389.567.556.794a2.468,2.468,0,0,0,.953-.2,1.874,1.874,0,0,0,.625-.454,1.631,1.631,0,0,0,.341-.624,2.559,2.559,0,0,0,.1-.715,3.214,3.214,0,0,0-.488-1.611,11,11,0,0,0-1.181-1.645,17.936,17.936,0,0,0-1.441-1.5q-.445-.413-.82-.74c-.13-.02-.262-.042-.394-.065a16.559,16.559,0,0,1-1.964-.465,4.229,4.229,0,0,1-1.385-.647.871.871,0,0,1-.227-.431,5.8,5.8,0,0,1-.147-.658,5.047,5.047,0,0,1-.068-.624,1.088,1.088,0,0,1,.012-.329,1.731,1.731,0,0,1,.477.113q.453.136,1.066.34t1.261.431q.646.227,1.055.34t.92.272q.51.159,1,.284a6.426,6.426,0,0,0,.919.17,1.221,1.221,0,0,0,.659-.068.888.888,0,0,0,.374-.25.48.48,0,0,0,.1-.295,2.14,2.14,0,0,0-.5-1.146,12.743,12.743,0,0,0-1.191-1.407q-.544-.562-1.1-1.061a7.607,7.607,0,0,1-1.291-.289,7.933,7.933,0,0,1-2.009-.942,6.2,6.2,0,0,1-1.657-1.577,3.717,3.717,0,0,1-.692-2.247,1.7,1.7,0,0,1,.5-1.237,1.747,1.747,0,0,1,1.361-.488,2.473,2.473,0,0,1,.806.136,2.575,2.575,0,0,1,.7.363,1.8,1.8,0,0,1,.488.533,1.284,1.284,0,0,1,.182.669.5.5,0,0,1-.216.443,1.1,1.1,0,0,1-.5.181,2.269,2.269,0,0,1-.556,0,1.326,1.326,0,0,1-.363-.079.71.71,0,0,1-.228-.25l-.158-.318a.506.506,0,0,0-.2-.216.573.573,0,0,0-.295-.079.423.423,0,0,0-.272.091.355.355,0,0,0-.114.295,1.844,1.844,0,0,0,.329.737,4.841,4.841,0,0,0,.976,1.089,6.537,6.537,0,0,0,1.624.987,5.829,5.829,0,0,0,2.27.454,2.67,2.67,0,0,0,1.226-.2,2.088,2.088,0,0,0,.749-.567,2.086,2.086,0,0,0,.386-.749,2.961,2.961,0,0,0,.114-.794,2.908,2.908,0,0,0-.556-1.554,12.409,12.409,0,0,0-1.305-1.657q-.642-.689-1.308-1.279-.263-.025-.554-.082a8.6,8.6,0,0,1-1.067-.284,7.526,7.526,0,0,1-1.089-.465,5.371,5.371,0,0,1-1-.669,1.867,1.867,0,0,1-.681-.42,2.49,2.49,0,0,1-.489-.658,3.614,3.614,0,0,1-.295-.806,3.672,3.672,0,0,1-.1-.84.333.333,0,0,1,.022-.125c.015-.038.03-.079.046-.125a2.24,2.24,0,0,1,.227-.737,3.125,3.125,0,0,1,.613-.862,3.525,3.525,0,0,1,1.033-.715,3.516,3.516,0,0,1,1.51-.295c.121,0,.269.008.443.023s.321.03.442.045a11.38,11.38,0,0,0-.5-1.089q-.294-.567-.624-1.1t-.669-.987a6.871,6.871,0,0,0-.613-.726.81.81,0,0,1-.227-.386.206.206,0,0,1,.09-.227.434.434,0,0,1,.318-.023,1.139,1.139,0,0,1,.454.249,6.892,6.892,0,0,1,.545.579q.408.465.885,1.1t.931,1.384a7.133,7.133,0,0,1,.681,1.43,7.884,7.884,0,0,1,1.611.613,5.3,5.3,0,0,1,1.294.919,4,4,0,0,1,.851,1.2,3.476,3.476,0,0,1,.307,1.464,2.4,2.4,0,0,1-.4,1.464,2.451,2.451,0,0,1-.987.794,3.96,3.96,0,0,1-1.294.318q-.19.015-.374.026.437.394.885.858a12.634,12.634,0,0,1,1.135,1.35,7.836,7.836,0,0,1,.84,1.452,3.648,3.648,0,0,1,.33,1.475,3.375,3.375,0,0,1-.375,1.668,3.063,3.063,0,0,1-.965,1.066,3.79,3.79,0,0,1-1.305.556q-.222.049-.443.083.412.367.806.756a13.785,13.785,0,0,1,1.374,1.554,2.51,2.51,0,0,1,.59,1.236,1.764,1.764,0,0,1-.125.76,2.4,2.4,0,0,1-.408.681,2.349,2.349,0,0,1-.613.511,1.641,1.641,0,0,1-.737.227,8.734,8.734,0,0,1-1.555,0l-.083-.006q.236.2.469.414a14.082,14.082,0,0,1,1.68,1.827,10.015,10.015,0,0,1,1.191,1.974,4.769,4.769,0,0,1,.454,1.963,2.838,2.838,0,0,1-.238,1.078,3.083,3.083,0,0,1-.738,1.055,3.594,3.594,0,0,1-1.294.76,3.512,3.512,0,0,1-.852.182q.426.386.863.839a12.622,12.622,0,0,1,1.135,1.35,7.835,7.835,0,0,1,.84,1.452,3.649,3.649,0,0,1,.33,1.475,3.375,3.375,0,0,1-.375,1.668,3.064,3.064,0,0,1-.965,1.066,3.787,3.787,0,0,1-1.305.556c-.178.039-.355.072-.532.1q.532.539,1.008,1.095a18.834,18.834,0,0,1,1.18,1.52q.511.737.829,1.259,1.021.227,1.657.386t1.157.272l1.362.284q.817.17,1.725.386t1.805.5a12.522,12.522,0,0,1,1.611.624,4.866,4.866,0,0,1,1.169.748,1.206,1.206,0,0,1,.454.908,1.941,1.941,0,0,1-.443,1.282,3.729,3.729,0,0,1-1.112.9,5.475,5.475,0,0,1-1.441.533,6.664,6.664,0,0,1-1.43.17A6.031,6.031,0,0,1-5780.64-722.026Zm-3.2-4.459a5.045,5.045,0,0,0,.4.4q.478.5.92.964a7.322,7.322,0,0,0,.931.828,4.346,4.346,0,0,0,1.056.579,3.7,3.7,0,0,0,1.316.216,10.766,10.766,0,0,0,1.226-.057,3.342,3.342,0,0,0,.749-.159.774.774,0,0,0,.375-.25.564.564,0,0,0,.1-.329q0-.454-.67-.737a15.167,15.167,0,0,0-1.827-.6l-.783-.193q-.511-.125-1.169-.295t-1.419-.352q-.761-.182-1.532-.386Zm-7.275-1.883q-.25.011-.272.17a.3.3,0,0,1-.182.216,1.583,1.583,0,0,1-.363.125,2.521,2.521,0,0,1-.408.057c-.137.008-.257.019-.363.034a2.574,2.574,0,0,0-1.158.386.768.768,0,0,0-.364.613,1.6,1.6,0,0,0,.454,1.078,4.412,4.412,0,0,0,1.169.907,6.844,6.844,0,0,0,1.566.624,6.307,6.307,0,0,0,1.624.227,3.631,3.631,0,0,0,1.532-.272,1.124,1.124,0,0,0,.579-1.134,1.719,1.719,0,0,0-.25-.9,4.107,4.107,0,0,0-.579-.76,4.122,4.122,0,0,0-.669-.567q-.341-.227-.545-.34-.2-.091-.545-.216a4.893,4.893,0,0,0-.658-.193,2.373,2.373,0,0,0-.494-.058Zm-2.985-17.824a.446.446,0,0,0-.192.386,1.174,1.174,0,0,0,.271.647,3.387,3.387,0,0,0,.784.737,6.791,6.791,0,0,0,1.249.681,7.317,7.317,0,0,0,1.691.476q-.2-.272-.42-.59t-.466-.635a6.3,6.3,0,0,0-1.316-1.362,2.3,2.3,0,0,0-.977-.431,1.9,1.9,0,0,0-.2-.011A.733.733,0,0,0-5794.1-746.191Zm4.972-23.133q.011.148.011.329a2.275,2.275,0,0,1-.51,1.486,3.376,3.376,0,0,1-1.306.965q.476.136.931.227a4.413,4.413,0,0,0,.862.091,7.07,7.07,0,0,0,.806-.045,2.406,2.406,0,0,0,.7-.181,1.378,1.378,0,0,0,.5-.363.878.878,0,0,0,.193-.59,1.49,1.49,0,0,0-.193-.749,2.4,2.4,0,0,0-.5-.613,3.721,3.721,0,0,0-.7-.488,6.32,6.32,0,0,0-.828-.374C-5789.148-769.525-5789.137-769.423-5789.129-769.325Zm-3.235-.873a3.817,3.817,0,0,0-.828.17,1.963,1.963,0,0,0-.613.318.582.582,0,0,0-.238.465,1.593,1.593,0,0,0,.238.828,2.77,2.77,0,0,0,.67.737,1.357,1.357,0,0,0,.432.068,6.754,6.754,0,0,0,.761-.045,1.854,1.854,0,0,0,.715-.227,1.42,1.42,0,0,0,.533-.578,2.331,2.331,0,0,0,.216-1.1,2.207,2.207,0,0,0-.012-.227,2.024,2.024,0,0,0-.034-.227l-.533-.125a1.85,1.85,0,0,0-.42-.057,4.165,4.165,0,0,0-.437-.023Q-5792.136-770.221-5792.364-770.2Zm61.81,42.989a1.339,1.339,0,0,1-.488-.261,1.718,1.718,0,0,1-.386-.431,1.393,1.393,0,0,1-.193-.488.469.469,0,0,1,.09-.409,1.086,1.086,0,0,1,.784-.5,1.363,1.363,0,0,1,.794.2,2.286,2.286,0,0,1,.636.567,1.471,1.471,0,0,1,.306.59.478.478,0,0,1-.1.42.945.945,0,0,1-.386.261,1.671,1.671,0,0,1-.534.1l-.083,0A1.524,1.524,0,0,1-5730.555-727.209Zm-51.979-23.936a3.748,3.748,0,0,1-.9-1.112,5.474,5.474,0,0,1-.533-1.441,6.681,6.681,0,0,1-.17-1.43,6.052,6.052,0,0,1,.158-1.51,3.447,3.447,0,0,1,.556-1.147,7.769,7.769,0,0,1,1.078-1.158q.681-.613,1.748-1.521.521-.454,1-.863t.907-.749q.114-.454.216-.851t.17-.715a5.553,5.553,0,0,1-1.418,1.339,3.37,3.37,0,0,1-1.895.545,1.836,1.836,0,0,1-1.577-.874,4.546,4.546,0,0,1-.6-2.576,6.979,6.979,0,0,1,.318-1.929,8.231,8.231,0,0,1,.907-2.043,5.942,5.942,0,0,1,1.452-1.612,3.1,3.1,0,0,1,1.929-.658,1.483,1.483,0,0,1,.862.25,2.28,2.28,0,0,1,.612.624,3.182,3.182,0,0,1,.386.795,6.347,6.347,0,0,1,.2.783,1.724,1.724,0,0,0,.068-.284,1.218,1.218,0,0,1,.068-.261,2.564,2.564,0,0,1,.51-1.056,1.157,1.157,0,0,1,.851-.284,1.136,1.136,0,0,1,.533.114c.144.076.216.144.216.2q-.114.25-.182.386c-.046.091-.091.186-.136.284a2.887,2.887,0,0,0-.137.375c-.045.151-.105.371-.182.658q-.045.159-.17.738t-.317,1.373q-.193.794-.409,1.748t-.419,1.861a11.758,11.758,0,0,0,1.316-.885q.681-.522,1.294-1.067.5-.443.907-.849a7.372,7.372,0,0,1,.3-1.353,7.937,7.937,0,0,1,.942-2.009,6.189,6.189,0,0,1,1.577-1.657,3.72,3.72,0,0,1,2.247-.692,1.7,1.7,0,0,1,1.237.5,1.751,1.751,0,0,1,.488,1.362,2.468,2.468,0,0,1-.136.806,2.577,2.577,0,0,1-.363.7,1.8,1.8,0,0,1-.533.488,1.287,1.287,0,0,1-.669.182.5.5,0,0,1-.442-.215,1.1,1.1,0,0,1-.182-.5,2.255,2.255,0,0,1,0-.556,1.313,1.313,0,0,1,.079-.363.7.7,0,0,1,.25-.227l.317-.159a.509.509,0,0,0,.216-.2.578.578,0,0,0,.079-.3.422.422,0,0,0-.091-.272.355.355,0,0,0-.295-.113,1.842,1.842,0,0,0-.737.329,4.837,4.837,0,0,0-1.089.976,6.51,6.51,0,0,0-.987,1.623,5.839,5.839,0,0,0-.454,2.27,2.667,2.667,0,0,0,.2,1.226,2.093,2.093,0,0,0,.567.749,2.072,2.072,0,0,0,.749.386,2.956,2.956,0,0,0,.794.114,2.908,2.908,0,0,0,1.555-.556,12.4,12.4,0,0,0,1.656-1.305,18.824,18.824,0,0,0,1.328-1.363,6.319,6.319,0,0,1,.532-1.622,8.947,8.947,0,0,1,1.2-1.9,6.842,6.842,0,0,1,1.611-1.43,3.345,3.345,0,0,1,1.8-.567,1.6,1.6,0,0,1,1.248.431,1.385,1.385,0,0,1,.34,1.067,3.268,3.268,0,0,1-.4,1.294,5.222,5.222,0,0,1-.783,1.067,7.947,7.947,0,0,1-.964.863q-.51.386-.964.7-.5.341-.953.647t-.794.556a2.46,2.46,0,0,0,.2.953,1.889,1.889,0,0,0,.453.624,1.632,1.632,0,0,0,.625.341,2.558,2.558,0,0,0,.715.1,3.211,3.211,0,0,0,1.61-.488,11.035,11.035,0,0,0,1.646-1.18,18,18,0,0,0,1.5-1.442q.413-.446.74-.82.031-.2.065-.394a16.516,16.516,0,0,1,.466-1.964,4.214,4.214,0,0,1,.646-1.385.871.871,0,0,1,.431-.227,6.041,6.041,0,0,1,.658-.148,5.027,5.027,0,0,1,.624-.068,1.111,1.111,0,0,1,.329.011,1.768,1.768,0,0,1-.113.477q-.136.454-.341,1.067t-.431,1.26q-.227.647-.341,1.056t-.272.919q-.159.51-.284,1a6.556,6.556,0,0,0-.17.919,1.227,1.227,0,0,0,.068.658.9.9,0,0,0,.25.375.481.481,0,0,0,.295.1,2.14,2.14,0,0,0,1.146-.5,12.787,12.787,0,0,0,1.407-1.192q.563-.545,1.062-1.1a7.6,7.6,0,0,1,.288-1.292,7.939,7.939,0,0,1,.942-2.009,6.2,6.2,0,0,1,1.577-1.657,3.721,3.721,0,0,1,2.247-.692,1.7,1.7,0,0,1,1.237.5,1.751,1.751,0,0,1,.488,1.362,2.468,2.468,0,0,1-.136.806,2.6,2.6,0,0,1-.363.7,1.811,1.811,0,0,1-.533.488,1.291,1.291,0,0,1-.67.182.5.5,0,0,1-.442-.215,1.114,1.114,0,0,1-.182-.5,2.3,2.3,0,0,1,0-.556,1.365,1.365,0,0,1,.08-.363.7.7,0,0,1,.25-.227l.317-.159a.506.506,0,0,0,.216-.2.573.573,0,0,0,.08-.3.422.422,0,0,0-.091-.272.356.356,0,0,0-.3-.113,1.842,1.842,0,0,0-.737.329,4.846,4.846,0,0,0-1.089.976,6.525,6.525,0,0,0-.987,1.623,5.839,5.839,0,0,0-.454,2.27,2.667,2.667,0,0,0,.2,1.226,2.092,2.092,0,0,0,.566.749,2.084,2.084,0,0,0,.749.386,2.957,2.957,0,0,0,.794.114,2.905,2.905,0,0,0,1.554-.556,12.4,12.4,0,0,0,1.657-1.305q.689-.641,1.279-1.307.026-.263.082-.554a8.56,8.56,0,0,1,.284-1.067,7.561,7.561,0,0,1,.465-1.089,5.406,5.406,0,0,1,.669-1,1.887,1.887,0,0,1,.42-.681,2.5,2.5,0,0,1,.658-.488,3.54,3.54,0,0,1,.806-.295,3.641,3.641,0,0,1,.84-.1.326.326,0,0,1,.124.023c.039.015.08.03.126.045a2.264,2.264,0,0,1,.737.227,3.138,3.138,0,0,1,.863.613,3.541,3.541,0,0,1,.715,1.033,3.518,3.518,0,0,1,.294,1.51q0,.181-.022.443t-.045.442a11.2,11.2,0,0,0,1.089-.5q.568-.295,1.1-.624t.987-.67a6.765,6.765,0,0,0,.726-.613.816.816,0,0,1,.386-.227.206.206,0,0,1,.227.091.434.434,0,0,1,.022.318,1.143,1.143,0,0,1-.25.454,6.828,6.828,0,0,1-.579.545q-.466.409-1.1.885t-1.384.931a7.169,7.169,0,0,1-1.43.681,7.9,7.9,0,0,1-.613,1.612,5.282,5.282,0,0,1-.919,1.294,4,4,0,0,1-1.2.851,3.474,3.474,0,0,1-1.464.307,2.4,2.4,0,0,1-1.464-.4,2.459,2.459,0,0,1-.794-.987,3.976,3.976,0,0,1-.317-1.294q-.015-.19-.026-.374-.394.436-.858.885a12.648,12.648,0,0,1-1.35,1.135,7.856,7.856,0,0,1-1.453.84,3.643,3.643,0,0,1-1.475.329,3.377,3.377,0,0,1-1.668-.375,3.06,3.06,0,0,1-1.066-.965,3.779,3.779,0,0,1-.556-1.305c-.033-.148-.061-.3-.083-.443q-.368.411-.757.806a13.748,13.748,0,0,1-1.554,1.374,2.509,2.509,0,0,1-1.237.59,1.767,1.767,0,0,1-.76-.125,2.39,2.39,0,0,1-.681-.408,2.341,2.341,0,0,1-.511-.613,1.65,1.65,0,0,1-.227-.738,8.73,8.73,0,0,1,0-1.555c0-.027,0-.055.006-.082q-.2.236-.415.468a14.042,14.042,0,0,1-1.826,1.68,10.015,10.015,0,0,1-1.975,1.192,4.766,4.766,0,0,1-1.962.454,2.843,2.843,0,0,1-1.078-.238,3.079,3.079,0,0,1-1.056-.738,3.6,3.6,0,0,1-.76-1.294,3.508,3.508,0,0,1-.182-.852q-.387.426-.839.864a12.653,12.653,0,0,1-1.35,1.135,7.833,7.833,0,0,1-1.452.84,3.649,3.649,0,0,1-1.475.329,3.379,3.379,0,0,1-1.668-.375,3.063,3.063,0,0,1-1.066-.965,3.789,3.789,0,0,1-.556-1.305q-.059-.267-.1-.532-.539.533-1.095,1.009a19.174,19.174,0,0,1-1.521,1.181q-.738.51-1.26.828-.226,1.021-.386,1.657t-.272,1.158q-.114.545-.284,1.362t-.386,1.725q-.215.908-.5,1.8a12.7,12.7,0,0,1-.624,1.612,4.884,4.884,0,0,1-.749,1.169,1.2,1.2,0,0,1-.907.454A1.943,1.943,0,0,1-5782.534-751.146Zm3.018-8.694a4.837,4.837,0,0,0-.4.4l-.965.919a7.316,7.316,0,0,0-.828.931,4.338,4.338,0,0,0-.579,1.055,3.689,3.689,0,0,0-.215,1.317,10.687,10.687,0,0,0,.057,1.226,3.306,3.306,0,0,0,.159.749.767.767,0,0,0,.25.375.565.565,0,0,0,.329.1q.454,0,.737-.67a15.123,15.123,0,0,0,.6-1.827q.067-.272.192-.783t.295-1.169q.171-.658.352-1.419t.386-1.532Zm39.834-6.163a4.406,4.406,0,0,0-.091.863,7.2,7.2,0,0,0,.045.806,2.426,2.426,0,0,0,.181.7,1.378,1.378,0,0,0,.363.5.879.879,0,0,0,.59.193,1.492,1.492,0,0,0,.749-.193,2.4,2.4,0,0,0,.612-.5,3.72,3.72,0,0,0,.488-.7,6.26,6.26,0,0,0,.374-.828c-.105.015-.208.026-.306.034s-.208.011-.329.011a2.273,2.273,0,0,1-1.486-.511,3.377,3.377,0,0,1-.965-1.305Q-5739.592-766.457-5739.683-766Zm-40.628-3.768a4.417,4.417,0,0,0-.908,1.169,6.829,6.829,0,0,0-.624,1.567,6.3,6.3,0,0,0-.227,1.623,3.633,3.633,0,0,0,.272,1.532,1.124,1.124,0,0,0,1.135.579,1.725,1.725,0,0,0,.9-.25,4.112,4.112,0,0,0,.76-.579,4.135,4.135,0,0,0,.567-.67q.227-.341.34-.545.091-.2.216-.545a4.941,4.941,0,0,0,.193-.658,2.285,2.285,0,0,0,.057-.568q-.012-.25-.17-.272a.3.3,0,0,1-.216-.182,1.587,1.587,0,0,1-.125-.363,2.5,2.5,0,0,1-.057-.409q-.012-.2-.034-.363a2.58,2.58,0,0,0-.386-1.158.769.769,0,0,0-.612-.363A1.6,1.6,0,0,0-5780.311-769.771Zm19.469-.25a3.362,3.362,0,0,0-.737.783,6.829,6.829,0,0,0-.681,1.249,7.3,7.3,0,0,0-.476,1.691q.272-.2.59-.42c.211-.144.424-.3.635-.465a6.338,6.338,0,0,0,1.362-1.317,2.3,2.3,0,0,0,.431-.976.933.933,0,0,0-.091-.624.445.445,0,0,0-.386-.193A1.166,1.166,0,0,0-5760.842-770.021Zm23.258.216a2.762,2.762,0,0,0-.737.67,1.355,1.355,0,0,0-.068.431,6.7,6.7,0,0,0,.045.76,1.847,1.847,0,0,0,.227.715,1.428,1.428,0,0,0,.579.533,2.328,2.328,0,0,0,1.1.216,2.244,2.244,0,0,0,.227-.011q.114-.012.227-.034c.045-.2.086-.375.125-.533a1.828,1.828,0,0,0,.057-.42,4.325,4.325,0,0,0,0-.885,3.837,3.837,0,0,0-.17-.829,1.934,1.934,0,0,0-.318-.613.58.58,0,0,0-.465-.238A1.587,1.587,0,0,0-5737.584-769.8Zm-62.464,16.716a2.3,2.3,0,0,1-.636-.567,1.465,1.465,0,0,1-.306-.59.477.477,0,0,1,.1-.42.942.942,0,0,1,.386-.261,1.674,1.674,0,0,1,.534-.1,1.6,1.6,0,0,1,.522.057,1.342,1.342,0,0,1,.488.261,1.72,1.72,0,0,1,.386.431,1.392,1.392,0,0,1,.193.488.471.471,0,0,1-.09.409,1.086,1.086,0,0,1-.783.5l-.076,0A1.366,1.366,0,0,1-5800.048-753.089Zm47.432-21.38a1.086,1.086,0,0,1-.5-.783,1.36,1.36,0,0,1,.2-.794,2.262,2.262,0,0,1,.567-.636,1.466,1.466,0,0,1,.589-.307.476.476,0,0,1,.419.1.943.943,0,0,1,.262.386,1.666,1.666,0,0,1,.1.534,1.582,1.582,0,0,1-.057.522,1.325,1.325,0,0,1-.261.488,1.739,1.739,0,0,1-.431.386,1.41,1.41,0,0,1-.488.193.674.674,0,0,1-.119.011A.428.428,0,0,1-5752.616-774.47Z" transform="translate(5801.502 777.501)" fill="#f3f4f8" stroke="rgba(0,0,0,0)" stroke-width="1"/>
</svg>
