<svg xmlns="http://www.w3.org/2000/svg" width="49.997" height="48" viewBox="0 0 49.997 48">
  <g id="Group_88" data-name="Group 88" transform="translate(-10329.633 -3734)">
    <g id="Path_1522" data-name="Path 1522" transform="translate(10329.928 3734.805)" fill="#fff">
      <path d="M 42.65499496459961 46.69504165649414 L 6.43849515914917 46.69504165649414 C 3.167802572250366 46.69504165649414 0.5061858892440796 44.01735305786133 0.5000171065330505 40.72328567504883 L 2.10903525352478 7.50770092010498 L 2.109625339508057 7.49561071395874 L 2.109625339508057 7.483510971069336 C 2.109625339508057 4.18419075012207 4.773625373840332 1.500000834465027 8.048115730285645 1.500000834465027 L 41.04537582397461 1.500000834465027 C 44.31986618041992 1.500000834465027 46.98386383056641 4.18419075012207 46.98386383056641 7.483510971069336 L 46.98386383056641 7.49561071395874 L 46.98445510864258 7.50770092010498 L 48.59348297119141 40.72328567504883 C 48.58731460571289 44.01735305786133 45.92569732666016 46.69504165649414 42.65499496459961 46.69504165649414 Z" stroke="none"/>
      <path d="M 8.048114776611328 2 C 5.049324035644531 2 2.609626770019531 4.45989990234375 2.609626770019531 7.4835205078125 L 2.609626770019531 7.507732391357422 L 2.608455657958984 7.531909942626953 L 1.000041961669922 40.73475646972656 C 1.012508392333984 43.74773406982422 3.447383880615234 46.19504165649414 6.438495635986328 46.19504165649414 L 42.65499496459961 46.19504165649414 C 45.64609909057617 46.19504165649414 48.08097457885742 43.74772262573242 48.09343719482422 40.73474884033203 L 46.48503494262695 7.531902313232422 L 46.48386383056641 7.507732391357422 L 46.48386383056641 7.4835205078125 C 46.48386383056641 4.45989990234375 44.04416656494141 2 41.04537582397461 2 L 8.048114776611328 2 M 8.048114776611328 1 L 41.04537582397461 1 C 44.60125732421875 1 47.48386383056641 3.90277099609375 47.48386383056641 7.4835205078125 L 49.09348678588867 40.71152114868164 C 49.09348678588867 44.29227066040039 46.21087646484375 47.19504165649414 42.65499496459961 47.19504165649414 L 6.438495635986328 47.19504165649414 C 2.882606506347656 47.19504165649414 -3.814697265625e-06 44.29227066040039 -3.814697265625e-06 40.71152114868164 L 1.609626770019531 7.4835205078125 C 1.609626770019531 3.90277099609375 4.492237091064453 1 8.048114776611328 1 Z" stroke="none" fill="#1e2b75"/>
    </g>
    <path id="Path_1536" data-name="Path 1536" d="M6.438,0H28.973a6.438,6.438,0,0,1,6.438,6.438V28.973a6.438,6.438,0,0,1-6.438,6.438H6.438A6.438,6.438,0,0,1,0,28.973V6.438A6.438,6.438,0,0,1,6.438,0Z" transform="translate(10335.172 3734)" fill="#de5c4c"/>
    <g id="Path_1524" data-name="Path 1524" transform="translate(10337.172 3736)" fill="none">
      <path d="M6.438,0H28.973a6.438,6.438,0,0,1,6.438,6.438V28.973a6.438,6.438,0,0,1-6.438,6.438H6.438A6.438,6.438,0,0,1,0,28.973V6.438A6.438,6.438,0,0,1,6.438,0Z" stroke="none"/>
      <path d="M 6.438488006591797 1 C 3.439699172973633 1 1 3.439699172973633 1 6.438488006591797 L 1 28.97320938110352 C 1 31.97199821472168 3.439699172973633 34.41169738769531 6.438488006591797 34.41169738769531 L 28.97320938110352 34.41169738769531 C 31.97199821472168 34.41169738769531 34.41169738769531 31.97199821472168 34.41169738769531 28.97320938110352 L 34.41169738769531 6.438488006591797 C 34.41169738769531 3.439699172973633 31.97199821472168 1 28.97320938110352 1 L 6.438488006591797 1 M 6.438488006591797 0 L 28.97320938110352 0 C 32.52908706665039 0 35.41169738769531 2.882610321044922 35.41169738769531 6.438488006591797 L 35.41169738769531 28.97320938110352 C 35.41169738769531 32.52908706665039 32.52908706665039 35.41169738769531 28.97320938110352 35.41169738769531 L 6.438488006591797 35.41169738769531 C 2.882610321044922 35.41169738769531 0 32.52908706665039 0 28.97320938110352 L 0 6.438488006591797 C 0 2.882610321044922 2.882610321044922 0 6.438488006591797 0 Z" stroke="none" fill="#1e2b75"/>
    </g>
    <g id="Path_1525" data-name="Path 1525" transform="translate(10337.706 3767.243) rotate(37)" fill="#fff">
      <path d="M 2.816839694976807 12.91453552246094 C 1.539329648017883 12.91453552246094 0.4999997019767761 11.9352855682373 0.4999997019767761 10.7316255569458 L 0.4999997019767761 2.682905912399292 C 0.4999997019767761 1.479245901107788 1.539329648017883 0.4999958574771881 2.816839694976807 0.4999958574771881 C 4.09434986114502 0.4999958574771881 5.133679866790771 1.479245901107788 5.133679866790771 2.682905912399292 L 5.133679866790771 10.7316255569458 C 5.133679866790771 11.9352855682373 4.09434986114502 12.91453552246094 2.816839694976807 12.91453552246094 Z" stroke="none"/>
      <path d="M 2.816839694976807 0.9999961853027344 C 1.815029621124268 0.9999961853027344 0.9999995231628418 1.754945755004883 0.9999995231628418 2.682906150817871 L 0.9999995231628418 10.7316255569458 C 0.9999995231628418 11.65958595275879 1.815029621124268 12.41453552246094 2.816839694976807 12.41453552246094 C 3.818649768829346 12.41453552246094 4.633679866790771 11.65958595275879 4.633679866790771 10.7316255569458 L 4.633679866790771 2.682906150817871 C 4.633679866790771 1.754945755004883 3.818649768829346 0.9999961853027344 2.816839694976807 0.9999961853027344 M 2.816839694976807 -3.814697265625e-06 C 4.372539520263672 -3.814697265625e-06 5.633679866790771 1.201175689697266 5.633679866790771 2.682906150817871 L 5.633679866790771 10.7316255569458 C 5.633679866790771 12.21335601806641 4.372539520263672 13.41453552246094 2.816839694976807 13.41453552246094 C 1.261139869689941 13.41453552246094 -4.76837158203125e-07 12.21335601806641 -4.76837158203125e-07 10.7316255569458 L -4.76837158203125e-07 2.682906150817871 C -4.76837158203125e-07 1.201175689697266 1.261139869689941 -3.814697265625e-06 2.816839694976807 -3.814697265625e-06 Z" stroke="none" fill="#1e2b75"/>
    </g>
    <g id="Path_1526" data-name="Path 1526" transform="matrix(-0.799, 0.602, -0.602, -0.799, 10379.63, 3777.957)" fill="#fff">
      <path d="M 2.816851377487183 12.36434173583984 C 1.539331436157227 12.36434173583984 0.5000013709068298 11.43445205688477 0.5000013709068298 10.29146194458008 L 0.5000013709068298 2.572881937026978 C 0.5000013709068298 1.42989182472229 1.539331436157227 0.500001847743988 2.816851377487183 0.500001847743988 C 4.094371318817139 0.500001847743988 5.133701324462891 1.42989182472229 5.133701324462891 2.572881937026978 L 5.133701324462891 10.29146194458008 C 5.133701324462891 11.43445205688477 4.094371318817139 12.36434173583984 2.816851377487183 12.36434173583984 Z" stroke="none"/>
      <path d="M 2.816851377487183 1.000001907348633 C 1.815041303634644 1.000001907348633 1.000001430511475 1.705592155456543 1.000001430511475 2.572881698608398 L 1.000001430511475 10.29146194458008 C 1.000001430511475 11.15875148773193 1.815041303634644 11.86434173583984 2.816851377487183 11.86434173583984 C 3.818661212921143 11.86434173583984 4.633701324462891 11.15875148773193 4.633701324462891 10.29146194458008 L 4.633701324462891 2.572881698608398 C 4.633701324462891 1.705592155456543 3.818661212921143 1.000001907348633 2.816851377487183 1.000001907348633 M 2.816851377487183 1.9073486328125e-06 C 4.372551441192627 1.9073486328125e-06 5.633701324462891 1.151922225952148 5.633701324462891 2.572881698608398 L 5.633701324462891 10.29146194458008 C 5.633701324462891 11.71242141723633 4.372551441192627 12.86434173583984 2.816851377487183 12.86434173583984 C 1.261151313781738 12.86434173583984 1.430511474609375e-06 11.71242141723633 1.430511474609375e-06 10.29146194458008 L 1.430511474609375e-06 2.572881698608398 C 1.430511474609375e-06 1.151922225952148 1.261151313781738 1.9073486328125e-06 2.816851377487183 1.9073486328125e-06 Z" stroke="none" fill="#1e2b75"/>
    </g>
    <path id="Path_1523" data-name="Path 1523" d="M-14.272-11.384h6.039v1.468h-4.417v2.241h4.185v1.468h-4.185v2.472H-8v1.468h-6.271Zm12.8,1.957a1.5,1.5,0,0,0-.689-.547,2.406,2.406,0,0,0-.908-.174,2.3,2.3,0,0,0-.547.064,1.486,1.486,0,0,0-.476.206,1.076,1.076,0,0,0-.341.367,1.059,1.059,0,0,0-.129.534.835.835,0,0,0,.322.708,3.165,3.165,0,0,0,.8.425q.476.18,1.043.348a4.241,4.241,0,0,1,1.043.464,2.579,2.579,0,0,1,.8.785,2.334,2.334,0,0,1,.322,1.3,2.86,2.86,0,0,1-.27,1.281,2.611,2.611,0,0,1-.728.908A3.146,3.146,0,0,1-2.3-2.216a4.443,4.443,0,0,1-1.275.18,4.784,4.784,0,0,1-1.635-.283,3.151,3.151,0,0,1-1.352-.953l1.223-1.185a2.046,2.046,0,0,0,.779.7A2.188,2.188,0,0,0-3.533-3.5a2.145,2.145,0,0,0,.567-.077,1.753,1.753,0,0,0,.515-.232,1.209,1.209,0,0,0,.373-.393,1.05,1.05,0,0,0,.142-.547.953.953,0,0,0-.322-.773,2.844,2.844,0,0,0-.8-.457q-.476-.187-1.043-.354a4.392,4.392,0,0,1-1.043-.457,2.537,2.537,0,0,1-.8-.773A2.3,2.3,0,0,1-6.263-8.86a2.456,2.456,0,0,1,.29-1.223,2.65,2.65,0,0,1,.76-.856,3.316,3.316,0,0,1,1.075-.509A4.616,4.616,0,0,1-2.9-11.616a4.507,4.507,0,0,1,1.4.219,3.239,3.239,0,0,1,1.217.721Zm9.645.18A2.717,2.717,0,0,0,7.2-9.968a2.625,2.625,0,0,0-.946-.18A3.16,3.16,0,0,0,4.973-9.9a2.932,2.932,0,0,0-.985.7A3.158,3.158,0,0,0,3.35-8.165,3.555,3.555,0,0,0,3.125-6.89,3.92,3.92,0,0,0,3.35-5.538a3.176,3.176,0,0,0,.637,1.069,2.966,2.966,0,0,0,.985.708A3.091,3.091,0,0,0,6.254-3.5a2.354,2.354,0,0,0,1.075-.264A2.935,2.935,0,0,0,8.3-4.611l1.339.953A3.648,3.648,0,0,1,8.134-2.422a4.7,4.7,0,0,1-1.893.386A5.328,5.328,0,0,1,4.3-2.377a4.422,4.422,0,0,1-1.519-.966,4.437,4.437,0,0,1-1-1.5,5.061,5.061,0,0,1-.361-1.944,5.28,5.28,0,0,1,.361-1.989,4.464,4.464,0,0,1,1-1.526A4.374,4.374,0,0,1,4.3-11.275a5.328,5.328,0,0,1,1.938-.341,4.444,4.444,0,0,1,1.719.328,4.008,4.008,0,0,1,1.474,1.114Z" transform="translate(10357.077 3759.604)" fill="#fff"/>
  </g>
</svg>
