<svg xmlns="http://www.w3.org/2000/svg" width="129.002" height="129.001" viewBox="0 0 129.002 129.001">
  <path id="Path_1555" data-name="Path 1555" d="M-5761.3-649.2a1.683,1.683,0,0,1-.463-.686,2.983,2.983,0,0,1-.182-.949,2.844,2.844,0,0,1,.1-.928,2.35,2.35,0,0,1,.462-.867,3.076,3.076,0,0,1,.768-.686,2.482,2.482,0,0,1,.867-.343.83.83,0,0,1,.726.161,1.929,1.929,0,0,1,.887,1.392,2.418,2.418,0,0,1-.363,1.412,4.083,4.083,0,0,1-1.009,1.13,2.615,2.615,0,0,1-1.049.544,1.1,1.1,0,0,1-.2.019A.807.807,0,0,1-5761.3-649.2Zm74.394-1.443a2.055,2.055,0,0,1-.809-.444,12.422,12.422,0,0,1-.968-1.028q-.725-.827-1.574-1.956t-1.654-2.461a12.623,12.623,0,0,1-1.21-2.541,14.054,14.054,0,0,1-2.865-1.09,9.426,9.426,0,0,1-2.3-1.634,7.118,7.118,0,0,1-1.514-2.138,6.2,6.2,0,0,1-.543-2.6,4.267,4.267,0,0,1,.706-2.6,4.356,4.356,0,0,1,1.756-1.411,7.05,7.05,0,0,1,2.3-.565c.227-.018.447-.034.664-.047q-.773-.7-1.571-1.526a22.552,22.552,0,0,1-2.019-2.4,14.048,14.048,0,0,1-1.493-2.582,6.5,6.5,0,0,1-.584-2.622,6.012,6.012,0,0,1,.666-2.965,5.429,5.429,0,0,1,1.715-1.9,6.729,6.729,0,0,1,2.319-.988c.264-.058.525-.108.789-.148q-.732-.653-1.434-1.345a24.573,24.573,0,0,1-2.441-2.763,4.445,4.445,0,0,1-1.049-2.2,3.158,3.158,0,0,1,.221-1.351,4.252,4.252,0,0,1,.727-1.21,4.171,4.171,0,0,1,1.089-.908,2.938,2.938,0,0,1,1.312-.4,15.521,15.521,0,0,1,2.765,0l.146.01q-.42-.359-.832-.737a24.923,24.923,0,0,1-2.986-3.247,17.846,17.846,0,0,1-2.118-3.509,8.486,8.486,0,0,1-.808-3.49,5.08,5.08,0,0,1,.424-1.916,5.462,5.462,0,0,1,1.312-1.876,6.392,6.392,0,0,1,2.3-1.351,6.24,6.24,0,0,1,1.516-.323q-.758-.687-1.535-1.492a22.574,22.574,0,0,1-2.019-2.4,14.06,14.06,0,0,1-1.493-2.582,6.5,6.5,0,0,1-.584-2.622,6.012,6.012,0,0,1,.666-2.965,5.429,5.429,0,0,1,1.715-1.9,6.73,6.73,0,0,1,2.319-.988q.475-.105.946-.171-.948-.958-1.793-1.946a33.63,33.63,0,0,1-2.1-2.7q-.908-1.311-1.473-2.238-1.816-.4-2.944-.686t-2.059-.484l-2.422-.5q-1.453-.3-3.067-.685t-3.208-.888a22.4,22.4,0,0,1-2.864-1.109,8.672,8.672,0,0,1-2.078-1.331,2.143,2.143,0,0,1-.808-1.614,3.449,3.449,0,0,1,.788-2.279,6.657,6.657,0,0,1,1.976-1.594,9.792,9.792,0,0,1,2.563-.948,11.868,11.868,0,0,1,2.544-.3,10.712,10.712,0,0,1,2.682.283,6.069,6.069,0,0,1,2.038.988,13.82,13.82,0,0,1,2.059,1.916q1.088,1.211,2.7,3.106.807.928,1.535,1.775t1.332,1.613q.806.2,1.513.384t1.271.3a9.87,9.87,0,0,1-2.381-2.521,5.989,5.989,0,0,1-.97-3.368,3.266,3.266,0,0,1,1.555-2.8,8.087,8.087,0,0,1,4.581-1.069,12.436,12.436,0,0,1,3.43.565,14.666,14.666,0,0,1,3.632,1.614,10.561,10.561,0,0,1,2.865,2.582,5.512,5.512,0,0,1,1.171,3.429,2.645,2.645,0,0,1-.444,1.533,4.08,4.08,0,0,1-1.109,1.089,5.7,5.7,0,0,1-1.412.686,11.2,11.2,0,0,1-1.394.363,3.128,3.128,0,0,0,.505.121,2.1,2.1,0,0,1,.463.121,4.565,4.565,0,0,1,1.877.908,2.056,2.056,0,0,1,.5,1.513,1.994,1.994,0,0,1-.2.948q-.2.383-.362.384-.442-.2-.687-.323t-.5-.242a5.109,5.109,0,0,0-.665-.242c-.269-.081-.658-.188-1.171-.323q-.283-.08-1.312-.3t-2.441-.565q-1.413-.343-3.108-.726l-3.308-.746a20.775,20.775,0,0,0,1.575,2.339q.927,1.21,1.9,2.3.788.886,1.51,1.612a13.175,13.175,0,0,1,2.4.525,14.139,14.139,0,0,1,3.572,1.674,11.013,11.013,0,0,1,2.946,2.8,6.609,6.609,0,0,1,1.231,3.994,3.024,3.024,0,0,1-.888,2.2,3.107,3.107,0,0,1-2.421.867,4.393,4.393,0,0,1-1.433-.242,4.562,4.562,0,0,1-1.25-.645,3.205,3.205,0,0,1-.867-.948,2.29,2.29,0,0,1-.324-1.19.892.892,0,0,1,.384-.787,1.963,1.963,0,0,1,.889-.323,4.058,4.058,0,0,1,.988,0,2.334,2.334,0,0,1,.646.141,1.246,1.246,0,0,1,.4.444c.081.161.174.35.282.565a.9.9,0,0,0,.364.383,1.017,1.017,0,0,0,.524.141.748.748,0,0,0,.483-.161.631.631,0,0,0,.2-.525,3.288,3.288,0,0,0-.586-1.311,8.535,8.535,0,0,0-1.736-1.936,11.549,11.549,0,0,0-2.884-1.755,10.375,10.375,0,0,0-4.035-.807,4.744,4.744,0,0,0-2.181.363,3.721,3.721,0,0,0-1.332,1.008,3.753,3.753,0,0,0-.687,1.331,5.332,5.332,0,0,0-.2,1.412,5.172,5.172,0,0,0,.99,2.763,22.064,22.064,0,0,0,2.32,2.944,33.135,33.135,0,0,0,2.423,2.362,11.237,11.237,0,0,1,2.884.947,15.905,15.905,0,0,1,3.369,2.138,12.09,12.09,0,0,1,2.542,2.864,5.94,5.94,0,0,1,1.009,3.207,2.842,2.842,0,0,1-.766,2.219,2.462,2.462,0,0,1-1.9.6,5.828,5.828,0,0,1-2.3-.706,9.292,9.292,0,0,1-1.9-1.392,14.088,14.088,0,0,1-1.535-1.714q-.685-.908-1.25-1.715-.6-.887-1.15-1.694t-.989-1.412a4.368,4.368,0,0,0-1.694.364,3.336,3.336,0,0,0-1.111.806,2.882,2.882,0,0,0-.6,1.11,4.479,4.479,0,0,0-.182,1.271,5.707,5.707,0,0,0,.868,2.864,19.568,19.568,0,0,0,2.1,2.925,31.876,31.876,0,0,0,2.563,2.662q.792.733,1.458,1.315c.231.036.466.075.7.116a29.591,29.591,0,0,1,3.491.827,7.542,7.542,0,0,1,2.462,1.15,1.564,1.564,0,0,1,.4.767,10.9,10.9,0,0,1,.262,1.17,9.105,9.105,0,0,1,.122,1.109,1.942,1.942,0,0,1-.021.585,3.077,3.077,0,0,1-.847-.2q-.806-.243-1.9-.605t-2.242-.766q-1.148-.4-1.875-.605t-1.635-.484q-.906-.282-1.775-.5a11.513,11.513,0,0,0-1.635-.3,2.173,2.173,0,0,0-1.171.121,1.593,1.593,0,0,0-.667.443.868.868,0,0,0-.181.524,3.807,3.807,0,0,0,.888,2.037,22.793,22.793,0,0,0,2.119,2.5q.969,1,1.962,1.887a13.477,13.477,0,0,1,2.294.513,14.117,14.117,0,0,1,3.572,1.674,11.013,11.013,0,0,1,2.946,2.8,6.608,6.608,0,0,1,1.231,3.993,3.025,3.025,0,0,1-.888,2.2,3.107,3.107,0,0,1-2.421.867,4.389,4.389,0,0,1-1.433-.242,4.554,4.554,0,0,1-1.25-.645,3.2,3.2,0,0,1-.867-.948,2.291,2.291,0,0,1-.324-1.19.892.892,0,0,1,.384-.787,1.966,1.966,0,0,1,.889-.322,4.064,4.064,0,0,1,.988,0,2.331,2.331,0,0,1,.646.141,1.244,1.244,0,0,1,.4.444c.081.161.174.35.282.565a.9.9,0,0,0,.364.383,1.017,1.017,0,0,0,.524.141.749.749,0,0,0,.483-.161.632.632,0,0,0,.2-.525,3.288,3.288,0,0,0-.586-1.311,8.544,8.544,0,0,0-1.736-1.936,11.551,11.551,0,0,0-2.884-1.755,10.378,10.378,0,0,0-4.035-.807,4.749,4.749,0,0,0-2.181.363,3.724,3.724,0,0,0-1.332,1.008,3.753,3.753,0,0,0-.687,1.331,5.331,5.331,0,0,0-.2,1.412,5.171,5.171,0,0,0,.99,2.763,22.06,22.06,0,0,0,2.32,2.944q1.139,1.226,2.325,2.275c.311.03.64.078.983.146a15.258,15.258,0,0,1,1.9.5,13.214,13.214,0,0,1,1.935.827,9.534,9.534,0,0,1,1.778,1.19,3.313,3.313,0,0,1,1.209.747,4.347,4.347,0,0,1,.867,1.17,6.291,6.291,0,0,1,.527,1.432,6.6,6.6,0,0,1,.181,1.493.591.591,0,0,1-.041.222c-.028.068-.053.141-.08.222a4,4,0,0,1-.4,1.311,5.61,5.61,0,0,1-1.089,1.533,6.28,6.28,0,0,1-1.837,1.271,6.241,6.241,0,0,1-2.683.524c-.215,0-.479-.014-.788-.04s-.57-.054-.786-.081a19.833,19.833,0,0,0,.888,1.936q.522,1.008,1.109,1.957t1.19,1.755a12.012,12.012,0,0,0,1.09,1.291,1.453,1.453,0,0,1,.4.686.368.368,0,0,1-.161.4.581.581,0,0,1-.3.072A1.236,1.236,0,0,1-5686.9-650.644Zm-2.2-15.289a3.291,3.291,0,0,0-1.271.4,2.532,2.532,0,0,0-.949,1.028,4.155,4.155,0,0,0-.383,1.957,3.841,3.841,0,0,0,.021.4,3.713,3.713,0,0,0,.06.4q.525.121.948.222a3.262,3.262,0,0,0,.747.1,7.647,7.647,0,0,0,1.573,0,6.8,6.8,0,0,0,1.474-.3,3.431,3.431,0,0,0,1.089-.565,1.033,1.033,0,0,0,.425-.827,2.82,2.82,0,0,0-.425-1.473,4.9,4.9,0,0,0-1.189-1.311,2.42,2.42,0,0,0-.768-.121A12.023,12.023,0,0,0-5689.1-665.933Zm-6.415-2.461a4.265,4.265,0,0,0-1.252.323,2.427,2.427,0,0,0-.887.646,1.559,1.559,0,0,0-.344,1.049,2.646,2.646,0,0,0,.344,1.331,4.237,4.237,0,0,0,.887,1.089,6.638,6.638,0,0,0,1.252.867,11.238,11.238,0,0,0,1.472.666c-.027-.188-.048-.37-.062-.544s-.02-.37-.02-.585a4.043,4.043,0,0,1,.909-2.642,5.99,5.99,0,0,1,2.319-1.715q-.844-.242-1.653-.4a7.836,7.836,0,0,0-1.534-.162A12.644,12.644,0,0,0-5695.518-668.394Zm4.236-39.855c.257.376.531.753.828,1.13a11.217,11.217,0,0,0,2.34,2.42,4.091,4.091,0,0,0,1.736.767,1.662,1.662,0,0,0,1.11-.161.792.792,0,0,0,.341-.686,2.072,2.072,0,0,0-.484-1.15,5.976,5.976,0,0,0-1.391-1.311,12.151,12.151,0,0,0-2.22-1.21,13.018,13.018,0,0,0-3.007-.847C-5691.785-708.975-5691.538-708.625-5691.282-708.249Zm-5.043-34.934a2,2,0,0,0-1.03,2.017,3.069,3.069,0,0,0,.443,1.593,7.305,7.305,0,0,0,1.029,1.351,7.354,7.354,0,0,0,1.191,1.008q.6.4.969.605.363.161.969.383a8.565,8.565,0,0,0,1.17.343,3.99,3.99,0,0,0,1.009.1c.295-.013.457-.114.484-.3a.533.533,0,0,1,.323-.383,2.8,2.8,0,0,1,.646-.222,4.43,4.43,0,0,1,.726-.1q.365-.021.646-.061a4.572,4.572,0,0,0,2.058-.686,1.369,1.369,0,0,0,.647-1.089,2.854,2.854,0,0,0-.807-1.916,7.859,7.859,0,0,0-2.078-1.614,12.209,12.209,0,0,0-2.785-1.109,11.209,11.209,0,0,0-2.886-.4A6.446,6.446,0,0,0-5696.325-743.182Zm-17.575-1.15a5.934,5.934,0,0,0-1.333.282,1.377,1.377,0,0,0-.667.444,1.006,1.006,0,0,0-.181.585q0,.807,1.19,1.311a26.909,26.909,0,0,0,3.248,1.069c.324.081.789.195,1.393.343s1.3.323,2.079.524,1.621.41,2.521.625,1.81.444,2.725.686c-.187-.215-.384-.437-.586-.666a8.73,8.73,0,0,0-.706-.706q-.848-.888-1.635-1.715a12.986,12.986,0,0,0-1.653-1.472,7.737,7.737,0,0,0-1.877-1.028,6.573,6.573,0,0,0-2.34-.383A18.948,18.948,0,0,0-5713.9-744.332Zm-19.522,84.941a3.113,3.113,0,0,1-.868-2.421,4.385,4.385,0,0,1,.243-1.433,4.537,4.537,0,0,1,.646-1.251,3.174,3.174,0,0,1,.947-.867,2.292,2.292,0,0,1,1.19-.323.889.889,0,0,1,.786.383,1.939,1.939,0,0,1,.322.888,4.034,4.034,0,0,1,0,.989,2.309,2.309,0,0,1-.14.646,1.261,1.261,0,0,1-.445.4l-.564.282a.9.9,0,0,0-.384.363,1.027,1.027,0,0,0-.142.525.749.749,0,0,0,.163.484.63.63,0,0,0,.524.2,3.274,3.274,0,0,0,1.311-.585,8.567,8.567,0,0,0,1.936-1.735,11.512,11.512,0,0,0,1.754-2.885,10.365,10.365,0,0,0,.808-4.036,4.769,4.769,0,0,0-.364-2.179,3.708,3.708,0,0,0-1.008-1.332,3.7,3.7,0,0,0-1.332-.686,5.25,5.25,0,0,0-1.413-.2,5.164,5.164,0,0,0-2.762.988,22.083,22.083,0,0,0-2.944,2.32,33.109,33.109,0,0,0-2.361,2.423,11.282,11.282,0,0,1-.947,2.884,15.932,15.932,0,0,1-2.138,3.369,12.179,12.179,0,0,1-2.864,2.543,5.947,5.947,0,0,1-3.207,1.009,2.84,2.84,0,0,1-2.218-.767,2.453,2.453,0,0,1-.6-1.9,5.849,5.849,0,0,1,.705-2.3,9.327,9.327,0,0,1,1.392-1.9,14.214,14.214,0,0,1,1.714-1.534q.909-.686,1.715-1.251.885-.605,1.694-1.151t1.411-.988a4.389,4.389,0,0,0-.363-1.7,3.333,3.333,0,0,0-.807-1.11,2.874,2.874,0,0,0-1.109-.605,4.531,4.531,0,0,0-1.271-.182,5.707,5.707,0,0,0-2.863.867,19.587,19.587,0,0,0-2.926,2.1,32.04,32.04,0,0,0-2.661,2.563q-.735.793-1.316,1.458-.056.349-.117.7a29.361,29.361,0,0,1-.828,3.491,7.516,7.516,0,0,1-1.149,2.462,1.548,1.548,0,0,1-.766.4,10.709,10.709,0,0,1-1.171.262,8.993,8.993,0,0,1-1.108.121,2.025,2.025,0,0,1-.586-.02,3.255,3.255,0,0,1,.2-.848q.243-.807.6-1.9t.767-2.24q.4-1.15.6-1.877t.485-1.634q.283-.908.5-1.776a11.316,11.316,0,0,0,.3-1.634,2.187,2.187,0,0,0-.12-1.17,1.593,1.593,0,0,0-.445-.666.858.858,0,0,0-.524-.182,3.814,3.814,0,0,0-2.039.888,22.941,22.941,0,0,0-2.5,2.118q-1,.968-1.887,1.962a13.542,13.542,0,0,1-.514,2.3,14.137,14.137,0,0,1-1.673,3.572,11.016,11.016,0,0,1-2.8,2.946,6.608,6.608,0,0,1-3.994,1.231,3.025,3.025,0,0,1-2.2-.888,3.1,3.1,0,0,1-.868-2.421,4.434,4.434,0,0,1,.24-1.433,4.645,4.645,0,0,1,.646-1.251,3.234,3.234,0,0,1,.949-.867,2.291,2.291,0,0,1,1.19-.323.892.892,0,0,1,.788.383,1.963,1.963,0,0,1,.324.888,4.083,4.083,0,0,1,0,.989,2.372,2.372,0,0,1-.143.646,1.245,1.245,0,0,1-.443.4l-.567.282a.915.915,0,0,0-.382.363,1.018,1.018,0,0,0-.142.525.749.749,0,0,0,.163.484.63.63,0,0,0,.524.2,3.282,3.282,0,0,0,1.311-.585,8.611,8.611,0,0,0,1.937-1.735,11.6,11.6,0,0,0,1.754-2.885,10.365,10.365,0,0,0,.808-4.036,4.743,4.743,0,0,0-.364-2.179,3.708,3.708,0,0,0-1.008-1.332,3.7,3.7,0,0,0-1.333-.686,5.248,5.248,0,0,0-1.412-.2,5.164,5.164,0,0,0-2.763.988,22.066,22.066,0,0,0-2.946,2.32q-1.224,1.14-2.273,2.324-.045.467-.146.985a15.191,15.191,0,0,1-.5,1.9,13.452,13.452,0,0,1-.827,1.937,9.532,9.532,0,0,1-1.19,1.776,3.33,3.33,0,0,1-.748,1.211,4.41,4.41,0,0,1-1.169.868,6.3,6.3,0,0,1-1.432.524,6.473,6.473,0,0,1-1.493.182.578.578,0,0,1-.221-.04c-.067-.027-.142-.053-.223-.081a4.03,4.03,0,0,1-1.311-.4,5.566,5.566,0,0,1-1.533-1.09,6.285,6.285,0,0,1-1.27-1.836,6.228,6.228,0,0,1-.524-2.684c0-.216.013-.478.041-.787s.053-.572.08-.787a19.74,19.74,0,0,0-1.936.888q-1.008.524-1.957,1.11t-1.756,1.191a12.222,12.222,0,0,0-1.289,1.09,1.46,1.46,0,0,1-.686.4.364.364,0,0,1-.4-.161.766.766,0,0,1-.041-.565,2.024,2.024,0,0,1,.444-.807,11.912,11.912,0,0,1,1.028-.969q.827-.727,1.957-1.574t2.46-1.655a12.716,12.716,0,0,1,2.542-1.211,13.974,13.974,0,0,1,1.09-2.865,9.413,9.413,0,0,1,1.633-2.3,7.115,7.115,0,0,1,2.137-1.513,6.176,6.176,0,0,1,2.6-.545,4.274,4.274,0,0,1,2.6.706,4.369,4.369,0,0,1,1.412,1.756,7.065,7.065,0,0,1,.564,2.3c.017.226.034.447.047.665q.7-.776,1.525-1.573a22.441,22.441,0,0,1,2.4-2.018,13.963,13.963,0,0,1,2.583-1.493,6.488,6.488,0,0,1,2.622-.585,6,6,0,0,1,2.965.666,5.438,5.438,0,0,1,1.9,1.715,6.734,6.734,0,0,1,.989,2.32c.059.263.107.525.147.787q.653-.731,1.345-1.432a24.629,24.629,0,0,1,2.762-2.442,4.467,4.467,0,0,1,2.2-1.049,3.145,3.145,0,0,1,1.352.222,4.248,4.248,0,0,1,1.21.726,4.192,4.192,0,0,1,.908,1.09,2.926,2.926,0,0,1,.4,1.311,15.552,15.552,0,0,1,0,2.764l-.01.146q.359-.419.737-.832a24.921,24.921,0,0,1,3.248-2.986,17.744,17.744,0,0,1,3.509-2.118,8.478,8.478,0,0,1,3.489-.807,5.054,5.054,0,0,1,1.917.424,5.482,5.482,0,0,1,1.876,1.312,6.385,6.385,0,0,1,1.351,2.3,6.23,6.23,0,0,1,.324,1.515q.686-.758,1.492-1.535a22.432,22.432,0,0,1,2.4-2.018,13.931,13.931,0,0,1,2.583-1.493,6.482,6.482,0,0,1,2.622-.585,6.006,6.006,0,0,1,2.965.666,5.441,5.441,0,0,1,1.9,1.715,6.774,6.774,0,0,1,.99,2.32q.1.474.17.946.959-.947,1.946-1.793a33.9,33.9,0,0,1,2.7-2.1q1.313-.908,2.24-1.473.4-1.816.684-2.946t.484-2.058q.2-.969.5-2.422t.685-3.066q.384-1.615.888-3.209a22.362,22.362,0,0,1,1.109-2.865,8.615,8.615,0,0,1,1.332-2.079,2.14,2.14,0,0,1,1.613-.807,3.452,3.452,0,0,1,2.279.787,6.665,6.665,0,0,1,1.594,1.978,9.718,9.718,0,0,1,.948,2.563,11.861,11.861,0,0,1,.3,2.542,10.692,10.692,0,0,1-.283,2.684,6.067,6.067,0,0,1-.988,2.038,13.747,13.747,0,0,1-1.916,2.058q-1.21,1.09-3.107,2.7-.928.807-1.774,1.534t-1.615,1.332c-.134.538-.26,1.043-.383,1.513s-.222.894-.3,1.271a9.834,9.834,0,0,1,2.521-2.381,5.988,5.988,0,0,1,3.368-.969,3.266,3.266,0,0,1,2.8,1.554,8.091,8.091,0,0,1,1.067,4.581,12.479,12.479,0,0,1-.564,3.43,14.739,14.739,0,0,1-1.613,3.632,10.562,10.562,0,0,1-2.582,2.865,5.515,5.515,0,0,1-3.429,1.17,2.636,2.636,0,0,1-1.532-.444,4.053,4.053,0,0,1-1.089-1.11,5.671,5.671,0,0,1-.685-1.413,11.235,11.235,0,0,1-.365-1.392,3.069,3.069,0,0,0-.121.5,2.171,2.171,0,0,1-.121.464,4.551,4.551,0,0,1-.908,1.877,2.053,2.053,0,0,1-1.513.5,2.021,2.021,0,0,1-.947-.2c-.257-.135-.383-.256-.383-.363.133-.3.24-.524.323-.686s.161-.33.241-.5a5.132,5.132,0,0,0,.243-.666c.079-.269.188-.659.322-1.17q.079-.283.3-1.312t.565-2.441q.343-1.413.725-3.108t.747-3.309a20.969,20.969,0,0,0-2.339,1.574q-1.21.929-2.3,1.9-.885.789-1.613,1.51a13.242,13.242,0,0,1-.525,2.4,14.106,14.106,0,0,1-1.674,3.572,10.987,10.987,0,0,1-2.8,2.946,6.608,6.608,0,0,1-3.994,1.231A3.026,3.026,0,0,1-5733.422-659.391Zm-8.653-7.889c-.376.255-.754.531-1.129.827a11.272,11.272,0,0,0-2.421,2.341,4.1,4.1,0,0,0-.767,1.735,1.67,1.67,0,0,0,.161,1.11.793.793,0,0,0,.687.343,2.074,2.074,0,0,0,1.15-.484,5.975,5.975,0,0,0,1.311-1.392,12.128,12.128,0,0,0,1.21-2.22,13.006,13.006,0,0,0,.847-3.007C-5741.35-667.785-5741.7-667.536-5742.075-667.28Zm31.323-5.63a7.309,7.309,0,0,0-1.351,1.029,7.251,7.251,0,0,0-1.009,1.19q-.4.606-.606.969-.161.362-.383.968a8.771,8.771,0,0,0-.343,1.17,4.023,4.023,0,0,0-.1,1.009c.014.3.116.458.3.484a.53.53,0,0,1,.383.323,2.814,2.814,0,0,1,.222.645,4.423,4.423,0,0,1,.1.727c.014.242.033.457.06.646a4.587,4.587,0,0,0,.687,2.058,1.367,1.367,0,0,0,1.088.646,2.852,2.852,0,0,0,1.917-.807,7.847,7.847,0,0,0,1.614-2.078,12.168,12.168,0,0,0,1.108-2.784,11.167,11.167,0,0,0,.4-2.885,6.443,6.443,0,0,0-.485-2.724,2,2,0,0,0-2.017-1.029A3.071,3.071,0,0,0-5710.752-672.91Zm-77.432,5.226c-.135.014-.268.034-.4.061q-.12.525-.222.949a3.283,3.283,0,0,0-.1.746,7.708,7.708,0,0,0,0,1.574,6.791,6.791,0,0,0,.3,1.473,3.481,3.481,0,0,0,.567,1.09,1.029,1.029,0,0,0,.827.424,2.826,2.826,0,0,0,1.472-.424,4.907,4.907,0,0,0,1.311-1.191,2.427,2.427,0,0,0,.122-.767,11.735,11.735,0,0,0-.083-1.352,3.266,3.266,0,0,0-.4-1.271,2.533,2.533,0,0,0-1.028-.948,4.138,4.138,0,0,0-1.957-.383C-5787.914-667.7-5788.047-667.7-5788.184-667.684Zm4.056-1.534a6.008,6.008,0,0,1,1.714,2.321q.241-.848.4-1.654a7.838,7.838,0,0,0,.161-1.533,12.4,12.4,0,0,0-.08-1.433,4.251,4.251,0,0,0-.323-1.251,2.429,2.429,0,0,0-.646-.888,1.561,1.561,0,0,0-1.049-.343,2.652,2.652,0,0,0-1.331.343,4.261,4.261,0,0,0-1.088.888,6.619,6.619,0,0,0-.868,1.251,11.107,11.107,0,0,0-.665,1.473c.188-.027.369-.047.543-.061s.37-.02.586-.02A4.044,4.044,0,0,1-5784.128-669.217Zm75.514-21.671a27.192,27.192,0,0,0-1.069,3.249c-.079.323-.195.787-.341,1.392s-.323,1.3-.524,2.078-.412,1.621-.627,2.522-.442,1.809-.684,2.724l.666-.585a9.217,9.217,0,0,0,.706-.706q.885-.848,1.714-1.635a13.031,13.031,0,0,0,1.472-1.655,7.742,7.742,0,0,0,1.028-1.876,6.543,6.543,0,0,0,.383-2.341,18.979,18.979,0,0,0-.1-2.179,5.908,5.908,0,0,0-.283-1.332,1.368,1.368,0,0,0-.444-.666,1,1,0,0,0-.584-.182Q-5708.109-692.079-5708.614-690.888Zm-56.19,11.621a6.079,6.079,0,0,1-2.038-.988,13.72,13.72,0,0,1-2.057-1.916q-1.088-1.21-2.7-3.106-.809-.928-1.535-1.775t-1.332-1.614q-.807-.2-1.513-.383c-.472-.121-.9-.222-1.271-.3a9.881,9.881,0,0,1,2.382,2.521,6,6,0,0,1,.967,3.368,3.264,3.264,0,0,1-1.553,2.8,8.089,8.089,0,0,1-4.581,1.069,12.443,12.443,0,0,1-3.43-.565,14.674,14.674,0,0,1-3.632-1.614,10.552,10.552,0,0,1-2.866-2.582,5.51,5.51,0,0,1-1.17-3.428,2.646,2.646,0,0,1,.444-1.533,4.059,4.059,0,0,1,1.109-1.089,5.718,5.718,0,0,1,1.412-.686,11.352,11.352,0,0,1,1.393-.363,3.084,3.084,0,0,0-.5-.12,2.168,2.168,0,0,1-.464-.121,4.548,4.548,0,0,1-1.876-.908,2.051,2.051,0,0,1-.506-1.513,2,2,0,0,1,.2-.948q.2-.383.363-.383c.294.134.523.242.686.322s.33.161.5.242a4.969,4.969,0,0,0,.666.242q.4.121,1.17.323.283.08,1.311.3t2.443.565q1.411.342,3.107.726t3.309.746a21.078,21.078,0,0,0-1.575-2.339q-.927-1.211-1.9-2.3-.788-.886-1.51-1.612a13.163,13.163,0,0,1-2.4-.525,14.123,14.123,0,0,1-3.572-1.674,11.016,11.016,0,0,1-2.945-2.8,6.607,6.607,0,0,1-1.231-3.994,3.018,3.018,0,0,1,.889-2.2,3.106,3.106,0,0,1,2.419-.867,4.4,4.4,0,0,1,1.433.242,4.6,4.6,0,0,1,1.251.646,3.2,3.2,0,0,1,.867.948,2.28,2.28,0,0,1,.323,1.19.891.891,0,0,1-.383.787,1.966,1.966,0,0,1-.889.323,4.046,4.046,0,0,1-.988,0,2.346,2.346,0,0,1-.646-.141,1.25,1.25,0,0,1-.4-.444l-.281-.565a.907.907,0,0,0-.364-.383,1.021,1.021,0,0,0-.524-.141.755.755,0,0,0-.485.161.634.634,0,0,0-.2.524,3.272,3.272,0,0,0,.586,1.311,8.627,8.627,0,0,0,1.734,1.936,11.642,11.642,0,0,0,2.887,1.754,10.354,10.354,0,0,0,4.035.807,4.741,4.741,0,0,0,2.179-.363,3.71,3.71,0,0,0,1.333-1.008,3.691,3.691,0,0,0,.685-1.331,5.236,5.236,0,0,0,.2-1.412,5.171,5.171,0,0,0-.989-2.763,22.1,22.1,0,0,0-2.32-2.945,33.351,33.351,0,0,0-2.423-2.361,11.227,11.227,0,0,1-2.884-.947,15.892,15.892,0,0,1-3.369-2.138,12.119,12.119,0,0,1-2.542-2.864,5.953,5.953,0,0,1-1.009-3.207,2.838,2.838,0,0,1,.768-2.218,2.457,2.457,0,0,1,1.9-.606,5.841,5.841,0,0,1,2.3.706,9.282,9.282,0,0,1,1.9,1.392,13.917,13.917,0,0,1,1.533,1.715q.688.908,1.252,1.714c.4.591.785,1.156,1.151,1.694s.69,1.009.988,1.412a4.394,4.394,0,0,0,1.694-.363,3.329,3.329,0,0,0,1.109-.807,2.89,2.89,0,0,0,.607-1.109,4.551,4.551,0,0,0,.181-1.271,5.705,5.705,0,0,0-.868-2.864,19.54,19.54,0,0,0-2.1-2.924,32.067,32.067,0,0,0-2.562-2.662q-.792-.734-1.458-1.316c-.232-.036-.466-.075-.7-.116a29.39,29.39,0,0,1-3.491-.827,7.514,7.514,0,0,1-2.461-1.149,1.546,1.546,0,0,1-.4-.766,10.445,10.445,0,0,1-.263-1.17,9.075,9.075,0,0,1-.121-1.109,1.92,1.92,0,0,1,.021-.585,3.086,3.086,0,0,1,.847.2q.806.242,1.9.6c.728.242,1.472.5,2.241.767s1.391.471,1.875.605,1.03.3,1.636.484,1.2.356,1.774.5a11.382,11.382,0,0,0,1.634.3,2.175,2.175,0,0,0,1.172-.121,1.581,1.581,0,0,0,.664-.444.848.848,0,0,0,.183-.524,3.812,3.812,0,0,0-.889-2.037,22.773,22.773,0,0,0-2.118-2.5q-.968-1-1.962-1.887a13.512,13.512,0,0,1-2.295-.513,14.108,14.108,0,0,1-3.572-1.674,11.016,11.016,0,0,1-2.945-2.8,6.608,6.608,0,0,1-1.231-3.994,3.019,3.019,0,0,1,.889-2.2,3.105,3.105,0,0,1,2.419-.867,4.4,4.4,0,0,1,1.433.242,4.588,4.588,0,0,1,1.251.645,3.205,3.205,0,0,1,.867.948,2.279,2.279,0,0,1,.323,1.19.891.891,0,0,1-.383.787,1.969,1.969,0,0,1-.889.322,4.034,4.034,0,0,1-.988,0,2.343,2.343,0,0,1-.646-.141,1.251,1.251,0,0,1-.4-.444l-.281-.565a.907.907,0,0,0-.364-.383,1.022,1.022,0,0,0-.524-.141.755.755,0,0,0-.485.161.634.634,0,0,0-.2.524,3.272,3.272,0,0,0,.586,1.311,8.624,8.624,0,0,0,1.734,1.936,11.648,11.648,0,0,0,2.887,1.755,10.36,10.36,0,0,0,4.035.807,4.744,4.744,0,0,0,2.179-.363,3.711,3.711,0,0,0,1.333-1.008,3.692,3.692,0,0,0,.685-1.331,5.238,5.238,0,0,0,.2-1.412,5.171,5.171,0,0,0-.989-2.763,22.117,22.117,0,0,0-2.32-2.945q-1.14-1.226-2.325-2.274c-.312-.03-.639-.078-.984-.146a15.241,15.241,0,0,1-1.9-.5,13.414,13.414,0,0,1-1.937-.827,9.566,9.566,0,0,1-1.774-1.19,3.33,3.33,0,0,1-1.211-.746,4.441,4.441,0,0,1-.869-1.17,6.479,6.479,0,0,1-.523-1.432,6.536,6.536,0,0,1-.181-1.493.592.592,0,0,1,.04-.222c.026-.067.053-.141.081-.222a4.023,4.023,0,0,1,.4-1.311,5.581,5.581,0,0,1,1.09-1.533,6.254,6.254,0,0,1,1.836-1.271,6.252,6.252,0,0,1,2.684-.524c.215,0,.478.014.788.04s.571.054.787.081a20.218,20.218,0,0,0-.889-1.936q-.523-1.008-1.109-1.956t-1.19-1.755a12.3,12.3,0,0,0-1.089-1.291,1.44,1.44,0,0,1-.4-.686.367.367,0,0,1,.161-.4.769.769,0,0,1,.565-.04,2.013,2.013,0,0,1,.806.443,11.921,11.921,0,0,1,.969,1.029q.727.827,1.575,1.956t1.654,2.461a12.736,12.736,0,0,1,1.211,2.542,14.02,14.02,0,0,1,2.865,1.089,9.387,9.387,0,0,1,2.3,1.633,7.119,7.119,0,0,1,1.514,2.138,6.179,6.179,0,0,1,.544,2.6,4.277,4.277,0,0,1-.706,2.6,4.357,4.357,0,0,1-1.755,1.412,7.039,7.039,0,0,1-2.3.565q-.338.027-.665.047.774.7,1.572,1.526a22.2,22.2,0,0,1,2.018,2.4,13.823,13.823,0,0,1,1.493,2.582,6.472,6.472,0,0,1,.586,2.622,6,6,0,0,1-.667,2.965,5.433,5.433,0,0,1-1.715,1.9,6.728,6.728,0,0,1-2.319.988c-.264.058-.525.108-.788.148q.732.653,1.433,1.345a24.512,24.512,0,0,1,2.442,2.763,4.472,4.472,0,0,1,1.049,2.2,3.137,3.137,0,0,1-.222,1.351,4.262,4.262,0,0,1-.727,1.21,4.161,4.161,0,0,1-1.09.908,2.916,2.916,0,0,1-1.31.4,15.531,15.531,0,0,1-2.766,0l-.146-.01q.42.359.833.737a24.988,24.988,0,0,1,2.986,3.247,17.738,17.738,0,0,1,2.118,3.51,8.465,8.465,0,0,1,.808,3.489,5.06,5.06,0,0,1-.424,1.916,5.474,5.474,0,0,1-1.312,1.876,6.393,6.393,0,0,1-2.3,1.351,6.217,6.217,0,0,1-1.515.323q.759.687,1.535,1.492a22.182,22.182,0,0,1,2.018,2.4,13.812,13.812,0,0,1,1.493,2.582,6.472,6.472,0,0,1,.586,2.622,6,6,0,0,1-.667,2.965,5.437,5.437,0,0,1-1.715,1.9,6.72,6.72,0,0,1-2.319.988q-.475.105-.945.171.945.958,1.792,1.947a33.2,33.2,0,0,1,2.1,2.7q.91,1.311,1.475,2.239,1.816.4,2.947.686t2.057.484l2.422.5q1.452.3,3.065.686t3.209.887a22.256,22.256,0,0,1,2.865,1.11,8.613,8.613,0,0,1,2.079,1.331,2.142,2.142,0,0,1,.808,1.614,3.449,3.449,0,0,1-.788,2.279,6.624,6.624,0,0,1-1.978,1.594,9.712,9.712,0,0,1-2.562.948,11.847,11.847,0,0,1-2.542.3A10.717,10.717,0,0,1-5764.8-679.268Zm-5.689-7.926a8.975,8.975,0,0,0,.7.706q.849.887,1.636,1.714a13,13,0,0,0,1.654,1.473,7.729,7.729,0,0,0,1.877,1.028,6.565,6.565,0,0,0,2.34.383,19.158,19.158,0,0,0,2.179-.1,5.961,5.961,0,0,0,1.332-.283,1.377,1.377,0,0,0,.667-.444,1,1,0,0,0,.182-.585q0-.807-1.191-1.311a26.933,26.933,0,0,0-3.248-1.069c-.323-.08-.788-.195-1.393-.343s-1.3-.323-2.079-.524-1.622-.41-2.523-.625-1.808-.444-2.723-.686Q-5770.8-687.537-5770.493-687.194Zm-12.935-3.348c-.3.014-.458.114-.485.3a.528.528,0,0,1-.322.383,2.821,2.821,0,0,1-.646.222,4.486,4.486,0,0,1-.727.1c-.243.014-.456.034-.646.061a4.58,4.58,0,0,0-2.058.686,1.367,1.367,0,0,0-.646,1.089,2.851,2.851,0,0,0,.807,1.916,7.837,7.837,0,0,0,2.077,1.613,12.18,12.18,0,0,0,2.785,1.109,11.217,11.217,0,0,0,2.886.4,6.46,6.46,0,0,0,2.724-.484,2,2,0,0,0,1.029-2.017,3.052,3.052,0,0,0-.444-1.594,7.312,7.312,0,0,0-1.028-1.352,7.323,7.323,0,0,0-1.19-1.008q-.606-.4-.969-.605-.361-.161-.968-.384a8.68,8.68,0,0,0-1.171-.343,4.2,4.2,0,0,0-.877-.1C-5783.342-690.545-5783.385-690.544-5783.428-690.542Zm-5.307-31.687a.792.792,0,0,0-.342.686,2.085,2.085,0,0,0,.482,1.15,6.018,6.018,0,0,0,1.393,1.31,12.074,12.074,0,0,0,2.219,1.211,13.042,13.042,0,0,0,3.007.847q-.363-.484-.746-1.049t-.828-1.13a11.221,11.221,0,0,0-2.34-2.421,4.09,4.09,0,0,0-1.736-.766,3.423,3.423,0,0,0-.357-.02A1.3,1.3,0,0,0-5788.735-722.229Zm8.838-41.126c.012.175.019.37.019.586a4.042,4.042,0,0,1-.906,2.642,6,6,0,0,1-2.321,1.715q.846.242,1.654.4a7.823,7.823,0,0,0,1.533.161,12.6,12.6,0,0,0,1.432-.081,4.277,4.277,0,0,0,1.251-.323,2.461,2.461,0,0,0,.887-.645,1.56,1.56,0,0,0,.343-1.049,2.645,2.645,0,0,0-.343-1.331,4.29,4.29,0,0,0-.887-1.089,6.628,6.628,0,0,0-1.251-.867,11.3,11.3,0,0,0-1.472-.666C-5779.931-763.711-5779.91-763.529-5779.9-763.355Zm-5.752-1.553a6.782,6.782,0,0,0-1.472.3,3.508,3.508,0,0,0-1.09.565,1.038,1.038,0,0,0-.424.827,2.842,2.842,0,0,0,.424,1.473,4.927,4.927,0,0,0,1.192,1.311,2.409,2.409,0,0,0,.767.121,12.013,12.013,0,0,0,1.353-.081,3.3,3.3,0,0,0,1.271-.4,2.527,2.527,0,0,0,.948-1.028,4.155,4.155,0,0,0,.384-1.957,3.847,3.847,0,0,0-.021-.4,3.591,3.591,0,0,0-.061-.4c-.349-.08-.666-.154-.948-.222a3.3,3.3,0,0,0-.747-.1,7.423,7.423,0,0,0-.778-.04Q-5785.242-764.948-5785.649-764.907Zm109.885,76.425a2.367,2.367,0,0,1-.868-.464,3.055,3.055,0,0,1-.686-.767,2.5,2.5,0,0,1-.344-.867.835.835,0,0,1,.161-.726,1.93,1.93,0,0,1,1.394-.888,2.425,2.425,0,0,1,1.412.363,4.05,4.05,0,0,1,1.129,1.008,2.615,2.615,0,0,1,.545,1.049.851.851,0,0,1-.181.746,1.693,1.693,0,0,1-.686.464,2.966,2.966,0,0,1-.949.181c-.051,0-.1,0-.148,0A2.709,2.709,0,0,1-5675.764-688.483Zm-92.407-42.553a6.664,6.664,0,0,1-1.595-1.978,9.736,9.736,0,0,1-.947-2.562,11.893,11.893,0,0,1-.3-2.542,10.755,10.755,0,0,1,.282-2.684,6.127,6.127,0,0,1,.988-2.038,13.8,13.8,0,0,1,1.916-2.058q1.21-1.089,3.106-2.7.927-.807,1.776-1.534c.563-.484,1.1-.928,1.612-1.332q.2-.807.385-1.513c.122-.471.221-.894.3-1.271a9.9,9.9,0,0,1-2.521,2.381,5.992,5.992,0,0,1-3.368.968,3.265,3.265,0,0,1-2.8-1.554,8.091,8.091,0,0,1-1.069-4.58,12.383,12.383,0,0,1,.567-3.43,14.562,14.562,0,0,1,1.613-3.632,10.571,10.571,0,0,1,2.582-2.865,5.514,5.514,0,0,1,3.429-1.17,2.634,2.634,0,0,1,1.532.444,4.052,4.052,0,0,1,1.089,1.11,5.659,5.659,0,0,1,.686,1.412,11.4,11.4,0,0,1,.364,1.392,3.174,3.174,0,0,0,.121-.5,2.116,2.116,0,0,1,.122-.464,4.551,4.551,0,0,1,.907-1.877,2.056,2.056,0,0,1,1.513-.5,2.021,2.021,0,0,1,.948.2q.383.2.383.363c-.134.3-.243.525-.322.686s-.162.33-.242.5a5.063,5.063,0,0,0-.243.666c-.082.269-.187.659-.323,1.17-.054.188-.155.625-.3,1.312s-.336,1.5-.564,2.441-.47,1.977-.728,3.108-.5,2.233-.746,3.309a20.829,20.829,0,0,0,2.339-1.574q1.211-.928,2.3-1.9.885-.788,1.611-1.51a13.136,13.136,0,0,1,.526-2.4,14.11,14.11,0,0,1,1.675-3.572,11,11,0,0,1,2.8-2.946,6.617,6.617,0,0,1,3.994-1.231,3.033,3.033,0,0,1,2.2.888,3.109,3.109,0,0,1,.866,2.421,4.42,4.42,0,0,1-.241,1.432,4.588,4.588,0,0,1-.646,1.251,3.22,3.22,0,0,1-.948.867,2.292,2.292,0,0,1-1.19.323.887.887,0,0,1-.786-.383,1.94,1.94,0,0,1-.323-.888,4.035,4.035,0,0,1,0-.989,2.306,2.306,0,0,1,.141-.646,1.244,1.244,0,0,1,.444-.4l.564-.283a.9.9,0,0,0,.383-.363,1.018,1.018,0,0,0,.142-.525.747.747,0,0,0-.163-.484.628.628,0,0,0-.523-.2,3.274,3.274,0,0,0-1.311.585,8.6,8.6,0,0,0-1.937,1.735,11.532,11.532,0,0,0-1.754,2.885,10.355,10.355,0,0,0-.808,4.035,4.737,4.737,0,0,0,.363,2.179,3.714,3.714,0,0,0,1.009,1.332,3.682,3.682,0,0,0,1.332.686,5.249,5.249,0,0,0,1.412.2,5.171,5.171,0,0,0,2.764-.988,22.118,22.118,0,0,0,2.945-2.32,33.708,33.708,0,0,0,2.361-2.423,11.205,11.205,0,0,1,.946-2.884,15.865,15.865,0,0,1,2.139-3.369,12.156,12.156,0,0,1,2.863-2.543,5.949,5.949,0,0,1,3.208-1.009,2.846,2.846,0,0,1,2.22.767,2.463,2.463,0,0,1,.6,1.9,5.839,5.839,0,0,1-.706,2.3,9.306,9.306,0,0,1-1.392,1.9,14.136,14.136,0,0,1-1.715,1.534q-.906.686-1.713,1.251-.888.606-1.694,1.151t-1.412.989a4.378,4.378,0,0,0,.363,1.7,3.359,3.359,0,0,0,.806,1.11,2.9,2.9,0,0,0,1.111.605,4.543,4.543,0,0,0,1.271.181,5.706,5.706,0,0,0,2.862-.867,19.59,19.59,0,0,0,2.926-2.1,31.917,31.917,0,0,0,2.662-2.563q.733-.793,1.315-1.458.056-.349.117-.7a29.536,29.536,0,0,1,.828-3.491,7.507,7.507,0,0,1,1.15-2.462,1.545,1.545,0,0,1,.766-.4,10.694,10.694,0,0,1,1.17-.262,8.9,8.9,0,0,1,1.109-.121,1.977,1.977,0,0,1,.586.02,3.2,3.2,0,0,1-.2.847q-.243.807-.606,1.9t-.765,2.24q-.405,1.15-.606,1.876c-.133.484-.3,1.029-.483,1.635s-.356,1.2-.5,1.775a11.681,11.681,0,0,0-.3,1.634,2.2,2.2,0,0,0,.121,1.17,1.608,1.608,0,0,0,.445.666.858.858,0,0,0,.525.182,3.808,3.808,0,0,0,2.037-.888,22.786,22.786,0,0,0,2.5-2.118q1-.968,1.888-1.961a13.425,13.425,0,0,1,.512-2.3,14.1,14.1,0,0,1,1.675-3.572,11.024,11.024,0,0,1,2.8-2.946,6.612,6.612,0,0,1,3.994-1.231,3.026,3.026,0,0,1,2.2.888,3.106,3.106,0,0,1,.867,2.421,4.357,4.357,0,0,1-.242,1.432,4.6,4.6,0,0,1-.644,1.251,3.232,3.232,0,0,1-.948.867,2.3,2.3,0,0,1-1.191.323.892.892,0,0,1-.788-.383,1.99,1.99,0,0,1-.322-.888,4.084,4.084,0,0,1,0-.989,2.408,2.408,0,0,1,.142-.646,1.234,1.234,0,0,1,.443-.4l.563-.283a.9.9,0,0,0,.384-.363,1.017,1.017,0,0,0,.141-.525.748.748,0,0,0-.161-.484.631.631,0,0,0-.525-.2,3.27,3.27,0,0,0-1.312.585,8.607,8.607,0,0,0-1.935,1.735,11.591,11.591,0,0,0-1.755,2.885,10.365,10.365,0,0,0-.806,4.035,4.73,4.73,0,0,0,.364,2.179,3.716,3.716,0,0,0,1.007,1.332,3.7,3.7,0,0,0,1.332.686,5.247,5.247,0,0,0,1.412.2,5.171,5.171,0,0,0,2.763-.988,22.121,22.121,0,0,0,2.945-2.32q1.225-1.14,2.274-2.324.045-.467.146-.985a15.284,15.284,0,0,1,.5-1.9,13.508,13.508,0,0,1,.826-1.937,9.623,9.623,0,0,1,1.19-1.776,3.354,3.354,0,0,1,.748-1.211,4.439,4.439,0,0,1,1.169-.868,6.27,6.27,0,0,1,1.432-.524,6.474,6.474,0,0,1,1.493-.182.585.585,0,0,1,.22.04c.069.027.143.054.224.081a4.016,4.016,0,0,1,1.309.4,5.566,5.566,0,0,1,1.534,1.09,6.266,6.266,0,0,1,1.271,1.836,6.246,6.246,0,0,1,.524,2.684c0,.215-.013.477-.041.787s-.053.572-.081.787a20.072,20.072,0,0,0,1.937-.888q1.008-.525,1.957-1.109t1.755-1.191a11.88,11.88,0,0,0,1.289-1.09,1.457,1.457,0,0,1,.688-.4.365.365,0,0,1,.4.161.766.766,0,0,1,.041.565,2.046,2.046,0,0,1-.444.807,12.255,12.255,0,0,1-1.028.968q-.828.727-1.958,1.574t-2.459,1.654a12.744,12.744,0,0,1-2.542,1.211,14.146,14.146,0,0,1-1.09,2.865,9.442,9.442,0,0,1-1.633,2.3,7.135,7.135,0,0,1-2.137,1.513,6.18,6.18,0,0,1-2.6.545,4.274,4.274,0,0,1-2.6-.706,4.375,4.375,0,0,1-1.412-1.755,7.093,7.093,0,0,1-.563-2.3c-.019-.225-.034-.447-.048-.664q-.7.776-1.525,1.573a22.5,22.5,0,0,1-2.4,2.017,14,14,0,0,1-2.583,1.493,6.476,6.476,0,0,1-2.621.585,6,6,0,0,1-2.965-.666,5.424,5.424,0,0,1-1.9-1.715,6.724,6.724,0,0,1-.989-2.32q-.087-.394-.146-.787c-.437.487-.884.965-1.347,1.432a24.282,24.282,0,0,1-2.763,2.442,4.457,4.457,0,0,1-2.2,1.049,3.144,3.144,0,0,1-1.351-.222,4.22,4.22,0,0,1-1.209-.726,4.183,4.183,0,0,1-.909-1.09,2.94,2.94,0,0,1-.4-1.312,15.551,15.551,0,0,1,0-2.764c0-.049.007-.1.011-.146q-.36.419-.738.832a24.961,24.961,0,0,1-3.247,2.986,17.839,17.839,0,0,1-3.51,2.119,8.479,8.479,0,0,1-3.489.807,5.06,5.06,0,0,1-1.917-.424,5.468,5.468,0,0,1-1.876-1.311,6.4,6.4,0,0,1-1.351-2.3,6.228,6.228,0,0,1-.323-1.514q-.687.757-1.492,1.535a22.5,22.5,0,0,1-2.4,2.017,13.933,13.933,0,0,1-2.582,1.493,6.49,6.49,0,0,1-2.623.585,6.009,6.009,0,0,1-2.965-.666,5.452,5.452,0,0,1-1.9-1.715,6.761,6.761,0,0,1-.989-2.32c-.069-.316-.127-.631-.171-.945q-.959.947-1.945,1.793-1.395,1.191-2.7,2.1t-2.241,1.473q-.4,1.816-.685,2.946t-.484,2.058q-.2.969-.5,2.422t-.685,3.067q-.383,1.614-.887,3.208a22.655,22.655,0,0,1-1.109,2.865,8.641,8.641,0,0,1-1.333,2.079,2.138,2.138,0,0,1-1.612.807A3.453,3.453,0,0,1-5768.171-731.036Zm5.363-15.456a8.626,8.626,0,0,0-.7.706l-1.715,1.634a12.9,12.9,0,0,0-1.472,1.655,7.684,7.684,0,0,0-1.029,1.876,6.564,6.564,0,0,0-.383,2.341,18.853,18.853,0,0,0,.1,2.179,5.822,5.822,0,0,0,.282,1.332,1.36,1.36,0,0,0,.443.666,1.007,1.007,0,0,0,.585.182q.806,0,1.311-1.191a27,27,0,0,0,1.069-3.249q.12-.484.342-1.392t.523-2.079q.305-1.17.625-2.522c.217-.9.444-1.809.687-2.724Zm70.816-10.957a7.775,7.775,0,0,0-.161,1.534,12.735,12.735,0,0,0,.081,1.432,4.3,4.3,0,0,0,.322,1.251,2.453,2.453,0,0,0,.646.888,1.561,1.561,0,0,0,1.049.343,2.65,2.65,0,0,0,1.331-.343,4.27,4.27,0,0,0,1.089-.888,6.676,6.676,0,0,0,.868-1.251,11.105,11.105,0,0,0,.665-1.473c-.187.027-.37.047-.543.06s-.371.02-.586.02a4.039,4.039,0,0,1-2.642-.908,6,6,0,0,1-1.715-2.321Q-5691.831-758.256-5691.992-757.449Zm-72.227-6.7a7.838,7.838,0,0,0-1.613,2.078,12.168,12.168,0,0,0-1.11,2.785,11.238,11.238,0,0,0-.4,2.885,6.461,6.461,0,0,0,.484,2.724,2,2,0,0,0,2.017,1.029,3.067,3.067,0,0,0,1.594-.444,7.307,7.307,0,0,0,1.351-1.029,7.31,7.31,0,0,0,1.008-1.19q.405-.606.6-.969.163-.362.385-.968a8.767,8.767,0,0,0,.342-1.17,4.072,4.072,0,0,0,.1-1.009c-.014-.3-.115-.458-.3-.484a.531.531,0,0,1-.383-.323,2.815,2.815,0,0,1-.222-.645,4.587,4.587,0,0,1-.1-.727q-.021-.363-.06-.645a4.6,4.6,0,0,0-.686-2.058,1.367,1.367,0,0,0-1.088-.645A2.851,2.851,0,0,0-5764.219-764.148Zm34.611-.444a5.994,5.994,0,0,0-1.312,1.392,12.188,12.188,0,0,0-1.211,2.22,13.031,13.031,0,0,0-.845,3.006c.321-.242.672-.491,1.048-.747s.753-.532,1.129-.827a11.266,11.266,0,0,0,2.42-2.341,4.074,4.074,0,0,0,.766-1.735,1.658,1.658,0,0,0-.162-1.11.788.788,0,0,0-.685-.343A2.07,2.07,0,0,0-5729.607-764.592Zm41.347.384a4.9,4.9,0,0,0-1.312,1.19,2.426,2.426,0,0,0-.121.767,11.941,11.941,0,0,0,.082,1.352,3.265,3.265,0,0,0,.4,1.271,2.541,2.541,0,0,0,1.028.948,4.139,4.139,0,0,0,1.956.383,4.024,4.024,0,0,0,.4-.02q.2-.021.4-.061.119-.524.221-.948a3.3,3.3,0,0,0,.1-.747,7.635,7.635,0,0,0,0-1.574,6.882,6.882,0,0,0-.3-1.473,3.45,3.45,0,0,0-.565-1.089,1.032,1.032,0,0,0-.827-.424A2.821,2.821,0,0,0-5688.261-764.208Zm-111.048,29.717a4.094,4.094,0,0,1-1.129-1.008,2.6,2.6,0,0,1-.544-1.049.848.848,0,0,1,.18-.746,1.679,1.679,0,0,1,.687-.464,2.968,2.968,0,0,1,.949-.182,2.835,2.835,0,0,1,.927.1,2.376,2.376,0,0,1,.868.464,3.045,3.045,0,0,1,.687.767,2.472,2.472,0,0,1,.342.867.834.834,0,0,1-.161.726,1.932,1.932,0,0,1-1.392.888c-.046,0-.09,0-.135,0A2.432,2.432,0,0,1-5799.309-734.492Zm84.324-38.01a1.935,1.935,0,0,1-.889-1.392,2.433,2.433,0,0,1,.364-1.412,4.032,4.032,0,0,1,1.01-1.13,2.608,2.608,0,0,1,1.047-.545.848.848,0,0,1,.747.182,1.7,1.7,0,0,1,.465.686,3.013,3.013,0,0,1,.18.949,2.781,2.781,0,0,1-.1.928,2.337,2.337,0,0,1-.462.867,3.086,3.086,0,0,1-.767.686,2.5,2.5,0,0,1-.868.343,1.172,1.172,0,0,1-.211.02A.761.761,0,0,1-5714.984-772.5Z" transform="translate(5801.503 777.501)" fill="#3748a8" stroke="rgba(0,0,0,0)" stroke-width="1"/>
</svg>
